<svg width="18" height="19" viewBox="0 0 18 19" fill="none" xmlns="http://www.w3.org/2000/svg">
<path d="M12.2519 1.28564C12.2519 1.28564 11.025 1.31536 9.90002 2.44036C8.77502 3.56536 8.96477 5.08092 8.96477 5.08092C8.96477 5.08092 10.0784 5.28456 11.267 4.09602C12.4556 2.90748 12.2519 1.28564 12.2519 1.28564Z" fill="#1C1C1C"/>
<path d="M9.09339 6.04022C8.26413 6.03455 7.75473 5.31852 6.34245 5.31852C5.07168 5.31852 3.79779 6.13841 3.25613 6.93173C2.71698 7.72135 2.25 8.58739 2.25 10.3449C2.25 12.1025 3.09624 15.1251 5.17714 17.1713C5.5335 17.5218 6.00524 17.7852 6.5434 17.8015C7.51133 17.8308 8.10567 17.1062 9.32831 17.1062C10.5509 17.1062 10.9189 17.8015 12.0226 17.8015C12.5246 17.8015 13.097 17.5729 13.6528 16.9817C14.366 16.2233 15.251 14.7787 15.7019 13.393C15.7019 13.393 13.4444 12.5212 13.4717 10.0081C13.4943 7.92513 15.2632 6.90059 15.2632 6.90059C15.2632 6.90059 14.2301 5.25342 12.0339 5.25342C10.517 5.26476 9.83771 6.04532 9.09339 6.04022Z" fill="#1C1C1C"/>
</svg>
