<svg width="21" height="18" viewBox="0 0 21 18" fill="none" xmlns="http://www.w3.org/2000/svg">
<path d="M19.1768 0.125L19.3018 0.131836C19.5934 0.160982 19.8681 0.289956 20.0771 0.499023C20.3157 0.7378 20.4498 1.06186 20.4502 1.39941V13.002C20.4497 13.3398 20.3151 13.6634 20.0762 13.9023C19.8373 14.1412 19.5136 14.2759 19.1758 14.2764H18.5781C18.3252 14.2759 18.078 14.1998 17.8682 14.0586C17.6637 13.9208 17.5046 13.7266 17.4082 13.5L9.14062 11.3076C9.04611 11.5239 8.89679 11.7116 8.70215 11.8467C8.50945 11.9804 8.28396 12.0543 8.05078 12.0684V15.3994C8.05078 16.0558 7.78934 16.6853 7.3252 17.1494C6.86105 17.6136 6.23159 17.875 5.5752 17.875C4.91895 17.8749 4.28924 17.6135 3.8252 17.1494C3.36131 16.6853 3.10059 16.0556 3.10059 15.3994V12.043C2.82874 11.9825 2.5829 11.8366 2.40234 11.623C2.20794 11.393 2.10094 11.101 2.10059 10.7998V10.6758C2.07003 10.6755 2.04319 10.6758 2.02148 10.6758C1.77735 10.6757 1.49037 10.6093 1.22168 10.3857C0.953688 10.1627 0.710152 9.78857 0.542969 9.18555V9.18457C0.372879 8.50469 0.291344 7.80526 0.300781 7.10449C0.300817 6.48571 0.351246 5.65053 0.574219 4.96777C0.796389 4.28765 1.20209 3.72773 1.92773 3.72754L2.10059 3.72656V3.59961C2.10108 3.26179 2.23575 2.93812 2.47461 2.69922C2.71361 2.46021 3.03797 2.32558 3.37598 2.3252H7.97559L8.16895 2.33984C8.36 2.36932 8.54298 2.44244 8.70312 2.55371C8.89759 2.68891 9.04724 2.87651 9.1416 3.09277L17.3975 0.915039C17.4016 0.909759 17.4058 0.904515 17.4102 0.899414C17.5072 0.67236 17.6677 0.478256 17.873 0.34082C18.082 0.200981 18.3276 0.125578 18.5791 0.125H19.1768ZM4.05078 15.3994C4.05078 15.8039 4.21109 16.1925 4.49707 16.4785C4.78295 16.7644 5.17094 16.9247 5.5752 16.9248C5.97964 16.9248 6.36831 16.7645 6.6543 16.4785C6.94028 16.1925 7.10059 15.8039 7.10059 15.3994V14.875H4.05078V15.3994ZM4.05078 13.9248H7.10059V12.0752H4.05078V13.9248ZM9.25098 4.0459V10.3545L17.3008 12.4883V1.92285L9.25098 4.0459ZM3.37598 3.27539C3.28978 3.27539 3.20646 3.30917 3.14551 3.37012C3.08461 3.43106 3.05078 3.51443 3.05078 3.60059V10.7998C3.05074 10.8423 3.05902 10.8845 3.0752 10.9238C3.09144 10.9631 3.11549 10.9992 3.14551 11.0293C3.17565 11.0595 3.21158 11.0843 3.25098 11.1006C3.29026 11.1168 3.33249 11.125 3.375 11.125H7.97559C8.06176 11.125 8.14414 11.0902 8.20508 11.0293C8.26597 10.9684 8.30078 10.886 8.30078 10.7998V3.60059C8.30078 3.51439 8.26603 3.43106 8.20508 3.37012C8.14416 3.30932 8.06166 3.2754 7.97559 3.27539H3.37598ZM1.92969 4.67773C1.83726 4.67786 1.74548 4.73573 1.65625 4.86816C1.56732 5.00017 1.48972 5.19362 1.42773 5.43359C1.30405 5.91249 1.24441 6.55542 1.25098 7.20117C1.25755 7.84689 1.33066 8.48923 1.46875 8.96777C1.53792 9.20743 1.62208 9.40118 1.71875 9.5332C1.81532 9.66502 1.91671 9.72646 2.02148 9.72656C2.04302 9.72656 2.07026 9.72633 2.10059 9.72656V4.67676L1.92969 4.67773ZM18.2539 1.67188L18.25 1.67285V12.7393L18.2549 12.7412V13.0029C18.2549 13.0453 18.2631 13.0878 18.2793 13.127C18.2956 13.1661 18.3197 13.2015 18.3496 13.2314C18.3796 13.2614 18.4149 13.2855 18.4541 13.3018C18.4933 13.318 18.5357 13.3261 18.5781 13.3262H19.1748C19.2175 13.3262 19.2604 13.3181 19.2998 13.3018C19.3392 13.2854 19.3751 13.2616 19.4053 13.2314C19.4354 13.2013 19.4593 13.1654 19.4756 13.126C19.4919 13.0865 19.5 13.0437 19.5 13.001V1.39941C19.5 1.35694 19.4918 1.31464 19.4756 1.27539C19.4593 1.23608 19.4354 1.2 19.4053 1.16992C19.3752 1.1399 19.3391 1.11587 19.2998 1.09961C19.2608 1.08352 19.219 1.07526 19.1768 1.0752H18.5791C18.5366 1.07524 18.4944 1.08335 18.4551 1.09961C18.4157 1.1159 18.3797 1.13985 18.3496 1.16992C18.3195 1.19999 18.2956 1.23612 18.2793 1.27539C18.263 1.31483 18.2539 1.35771 18.2539 1.40039V1.67188Z" fill="#BBBBBB" stroke="#BBBBBB" stroke-width="0.15"/>
<path d="M6.77588 4.32471C6.90171 4.32482 7.02283 4.37537 7.11182 4.46436C7.20064 4.55339 7.25048 4.67451 7.25049 4.80029V9.6001C7.2504 9.72594 7.20079 9.84704 7.11182 9.93604C7.02283 10.025 6.90171 10.0746 6.77588 10.0747C6.65007 10.0747 6.52898 10.0249 6.43994 9.93604C6.35094 9.84703 6.30038 9.72596 6.30029 9.6001V4.80029C6.3003 4.67432 6.35087 4.55343 6.43994 4.46436C6.52902 4.37528 6.64991 4.32471 6.77588 4.32471Z" fill="#BBBBBB" stroke="#BBBBBB" stroke-width="0.15"/>
<path d="M4.77588 4.32471C4.90171 4.32482 5.02283 4.37537 5.11182 4.46436C5.20064 4.55339 5.25048 4.67451 5.25049 4.80029V9.6001C5.2504 9.72594 5.20079 9.84704 5.11182 9.93604C5.02283 10.025 4.90171 10.0746 4.77588 10.0747C4.65007 10.0747 4.52898 10.0249 4.43994 9.93604C4.35094 9.84703 4.30038 9.72596 4.30029 9.6001V4.80029C4.3003 4.67432 4.35087 4.55343 4.43994 4.46436C4.52902 4.37528 4.64991 4.32471 4.77588 4.32471Z" fill="#BBBBBB" stroke="#BBBBBB" stroke-width="0.15"/>
</svg>
