<svg width="19" height="19" viewBox="0 0 19 19" fill="none" xmlns="http://www.w3.org/2000/svg">
<g clip-path="url(#clip0_318_1866)">
<path d="M8.015 18.4456C3.74 17.6806 0.5 13.9906 0.5 9.53564C0.5 4.58564 4.55 0.535645 9.5 0.535645C14.45 0.535645 18.5 4.58564 18.5 9.53564C18.5 13.9906 15.26 17.6806 10.985 18.4456L10.49 18.0406H8.51L8.015 18.4456Z" fill="url(#paint0_linear_318_1866)"/>
<path d="M13.0101 12.0554L13.4151 9.53541H11.0301V7.78041C11.0301 7.06041 11.3001 6.52041 12.3801 6.52041H13.5501V4.22541C12.9201 4.13541 12.2001 4.04541 11.5701 4.04541C9.50006 4.04541 8.06006 5.30541 8.06006 7.55541V9.53541H5.81006V12.0554H8.06006V18.4004C8.55506 18.4904 9.05006 18.5354 9.54506 18.5354C10.0401 18.5354 10.5351 18.4904 11.0301 18.4004V12.0554H13.0101Z" fill="white"/>
</g>
<defs>
<linearGradient id="paint0_linear_318_1866" x1="9.50045" y1="17.9097" x2="9.50045" y2="0.532329" gradientUnits="userSpaceOnUse">
<stop stop-color="#0062E0"/>
<stop offset="1" stop-color="#19AFFF"/>
</linearGradient>
<clipPath id="clip0_318_1866">
<rect width="18" height="18" fill="white" transform="translate(0.5 0.535645)"/>
</clipPath>
</defs>
</svg>
