<svg width="18" height="19" viewBox="0 0 18 19" fill="none" xmlns="http://www.w3.org/2000/svg">
<path d="M16.8759 9.71057C16.8759 9.06308 16.8223 8.59058 16.7063 8.10059H9.16162V11.0231H13.5902C13.5009 11.7493 13.0188 12.8431 11.9473 13.578L11.9323 13.6759L14.3178 15.4869L14.483 15.5031C16.0009 14.1293 16.8759 12.1081 16.8759 9.71057Z" fill="#4285F4"/>
<path d="M9.16098 17.4108C11.3306 17.4108 13.152 16.7108 14.4824 15.5033L11.9467 13.5782C11.2681 14.042 10.3574 14.3657 9.16098 14.3657C7.03601 14.3657 5.23246 12.992 4.58954 11.0933L4.4953 11.1011L2.01486 12.9824L1.98242 13.0707C3.30383 15.6433 6.01811 17.4108 9.16098 17.4108Z" fill="#34A853"/>
<path d="M4.58998 11.0932C4.42034 10.6033 4.32216 10.0782 4.32216 9.53574C4.32216 8.99321 4.42034 8.46823 4.58106 7.97823L4.57656 7.87388L2.06503 5.9624L1.98285 6.00071C1.43824 7.06822 1.12573 8.26699 1.12573 9.53574C1.12573 10.8045 1.43824 12.0032 1.98285 13.0707L4.58998 11.0932Z" fill="#FBBC05"/>
<path d="M9.16103 4.70562C10.6699 4.70562 11.6878 5.34437 12.2682 5.87816L14.536 3.70814C13.1432 2.4394 11.3306 1.66064 9.16103 1.66064C6.01814 1.66064 3.30384 3.42813 1.98242 6.00061L4.58063 7.97814C5.23248 6.07939 7.03604 4.70562 9.16103 4.70562Z" fill="#EB4335"/>
</svg>
