<svg width="131" height="133" viewBox="0 0 131 133" fill="none" xmlns="http://www.w3.org/2000/svg">
<g filter="url(#filter0_i_590_6637)">
<path d="M115.983 22.6883C118.454 20.8148 120.986 18.7236 123.695 16.8907C126.303 15.1235 128.333 16.197 128.434 19.2958C128.748 28.9872 129.047 38.6787 129.244 48.3752C129.341 53.2614 127.867 54.3146 123.487 52.4715C115.735 49.2157 108.018 45.8536 100.332 42.4408C96.8029 40.8711 96.5801 38.3951 99.6385 35.8887C101.77 34.1418 103.963 32.4658 106.185 30.7088C102.813 25.8479 98.3372 22.582 93.6585 19.8477C81.3037 12.6222 67.8957 10.3335 53.9661 13.7209C35.6517 18.1666 22.512 29.3062 15.4687 46.7853C6.85582 68.1479 12.8104 91.6626 30.1426 107.04C42.0316 117.592 55.946 121.755 71.4452 120.489C84.4734 119.425 95.7194 114.018 104.884 104.483C111.953 97.1311 116.738 88.584 118.885 78.604C119.396 76.2292 119.781 73.819 120.075 71.4037C120.399 68.7049 122.338 66.7757 125.082 66.6441C128.09 66.5023 131.027 68.3302 130.89 71.0138C130.642 75.8494 130.196 80.766 128.991 85.4345C126.449 95.3032 121.305 103.891 114.51 111.456C109.451 117.086 103.416 121.451 96.727 125.01C87.3495 130.003 77.2884 132.19 66.8172 132.271C52.7307 132.378 39.6822 128.676 28.0717 120.458C18.7397 113.851 11.4281 105.466 6.50645 95.1513C1.09362 83.8041 -0.982394 71.8848 0.430308 59.2616C1.87845 46.3245 6.53176 34.795 14.5168 24.663C24.1627 12.3943 36.9428 4.87509 52.1028 1.60917C71.3793 -2.54286 89.1217 1.37625 105.046 12.9462C108.905 15.7463 112.216 19.3009 115.983 22.6934V22.6883Z" fill="white"/>
</g>
<g filter="url(#filter1_i_590_6637)">
<path d="M66.063 109C65.4458 108.87 64.8503 108.745 64.2547 108.619C62.5111 108.251 60.7675 107.884 59.0239 107.516C58.5362 107.412 58.5398 107.41 58.6407 106.933C59.4471 103.136 60.2499 99.3402 61.0581 95.5438C61.0995 95.353 61.1341 95.2197 60.8695 95.1612C59.0445 94.7635 57.2207 94.3515 55.3973 93.9466C55.3685 93.9405 55.3349 93.9506 55.2708 93.9564C55.111 94.6853 54.9477 95.4179 54.7933 96.1519C54.1128 99.3688 53.4323 102.586 52.7608 105.806C52.706 106.072 52.6271 106.164 52.3266 106.1C50.0624 105.607 47.7953 105.13 45.5249 104.665C45.2137 104.601 45.1525 104.485 45.2186 104.184C46.0447 100.339 46.8582 96.4925 47.6753 92.6457C47.7717 92.1923 47.7753 92.1922 47.3308 92.0973C42.5978 91.0796 37.8648 90.0637 33.1318 89.0461C33.0274 89.023 32.9227 88.9928 32.7857 88.9566C32.8222 88.8267 32.8449 88.7116 32.8875 88.6048C33.9289 85.9447 34.9776 83.2878 36.0135 80.6244C36.1116 80.3709 36.22 80.3045 36.4972 80.3661C38.1283 80.7332 39.764 81.0805 41.3995 81.4224C41.6766 81.4804 41.9632 81.5042 42.2456 81.5102C43.5986 81.5426 44.642 80.6984 44.9252 79.3705C46.2931 72.9293 47.6646 66.4879 49.0307 60.0449C49.9931 55.5126 50.9484 50.9789 51.909 46.4467C52.2286 44.9353 51.4879 43.3385 50.0867 42.5525C49.2339 42.0739 48.2859 41.8825 47.3465 41.6802C46.022 41.3969 44.6912 41.137 43.3607 40.8842C43.0676 40.8285 42.9644 40.7376 43.0352 40.419C43.5649 37.9842 44.0785 35.5464 44.5973 33.1084C44.6204 33.004 44.6525 32.9011 44.6919 32.755C49.6927 33.8185 54.6755 34.8791 59.687 35.944C59.8905 34.985 60.0837 34.0889 60.2733 33.1929C60.9188 30.1469 61.5661 27.1007 62.2062 24.0513C62.2642 23.776 62.3464 23.6767 62.6632 23.7458C64.9166 24.2372 67.1746 24.7088 69.4343 25.175C69.7275 25.2361 69.8219 25.3291 69.7513 25.6548C68.9406 29.4282 68.1477 33.2044 67.3496 36.9809C67.3329 37.0636 67.3216 37.1479 67.3025 37.2647C67.9876 37.3975 68.6511 37.5239 69.3112 37.6559C70.4893 37.889 71.6706 38.1149 72.8439 38.3661C73.1085 38.4228 73.1812 38.3595 73.2347 38.1059C74.0152 34.3854 74.8065 30.6663 75.5942 26.9456C75.6876 26.5084 75.6874 26.503 76.0905 26.5887C78.365 27.0722 80.6362 27.563 82.914 28.0357C83.1874 28.0921 83.2146 28.2054 83.1641 28.4411C82.3479 32.2646 81.539 36.0897 80.7265 39.9148C80.6331 40.3539 80.6313 40.3521 81.0701 40.4901C83.8335 41.3616 86.5259 42.3982 89.0203 43.8935C91.1699 45.1832 93.0668 46.7516 94.413 48.9037C95.2594 50.2576 95.8115 51.7236 95.9983 53.3134C96.3876 56.6352 95.8642 59.8001 94.2289 62.7331C92.7547 65.3764 90.4363 66.9783 87.5949 67.8828C87.4519 67.9289 87.3088 67.9715 87.134 68.0277C87.8356 68.4242 88.5109 68.7824 89.1625 69.1789C90.6922 70.1102 92.0572 71.235 93.1458 72.6695C94.5958 74.5787 95.3619 76.7407 95.3914 79.1307C95.4503 83.657 94.1991 87.8031 91.5508 91.4792C89.687 94.065 87.102 95.6513 84.0592 96.5165C82.5493 96.9451 81.0125 97.221 79.4428 97.2732C78.0978 97.3192 76.7457 97.4136 75.4067 97.3254C73.2836 97.1847 71.1668 96.917 69.0494 96.685C68.7769 96.6554 68.6861 96.714 68.6311 96.9767C67.8135 100.857 66.9867 104.735 66.1601 108.614C66.1356 108.729 66.1021 108.843 66.0628 108.994L66.063 109ZM71.007 86.8319C71.5731 86.7814 72.1411 86.7345 72.7071 86.6787C73.8568 86.5664 74.9628 86.279 76.0311 85.8375C79.9297 84.2259 80.8024 79.7843 79.5755 76.9654C78.9183 75.4567 77.795 74.3519 76.4643 73.4403C74.5918 72.1586 72.5039 71.347 70.353 70.6752C67.3823 69.7467 64.3254 69.2088 61.276 68.6296C60.8354 68.5452 60.832 68.5489 60.7479 68.9483C59.6529 74.1228 58.5616 79.2989 57.4558 84.472C57.3884 84.7886 57.46 84.8932 57.7677 84.9573C59.6404 85.3408 61.5024 85.7729 63.3811 86.1241C65.8981 86.5972 68.4361 86.9035 71.0088 86.8336L71.007 86.8319ZM73.4847 62.5535C73.4912 62.5854 73.4958 62.6156 73.5023 62.6475C74.606 62.4458 75.7339 62.3219 76.811 62.0265C80.9265 60.8929 82.0182 57.0328 81.3364 54.1285C80.941 52.4462 79.8425 51.2334 78.4665 50.2555C76.9404 49.1722 75.2283 48.483 73.458 47.9173C70.9942 47.1316 68.4486 46.7095 65.9199 46.21C65.6339 46.154 65.5688 46.2314 65.5154 46.4886C64.5283 51.1807 63.5341 55.873 62.5272 60.5622C62.4583 60.886 62.5401 60.976 62.8406 61.0385C64.1017 61.2991 65.3554 61.601 66.6182 61.8562C68.8828 62.3115 71.1681 62.5964 73.4848 62.557L73.4847 62.5535Z" fill="#F18E19"/>
</g>
<defs>
<filter id="filter0_i_590_6637" x="0" y="0" width="130.895" height="132.273" filterUnits="userSpaceOnUse" color-interpolation-filters="sRGB">
<feFlood flood-opacity="0" result="BackgroundImageFix"/>
<feBlend mode="normal" in="SourceGraphic" in2="BackgroundImageFix" result="shape"/>
<feColorMatrix in="SourceAlpha" type="matrix" values="0 0 0 0 0 0 0 0 0 0 0 0 0 0 0 0 0 0 127 0" result="hardAlpha"/>
<feOffset dx="0.776076"/>
<feComposite in2="hardAlpha" operator="arithmetic" k2="-1" k3="1"/>
<feColorMatrix type="matrix" values="0 0 0 0 0 0 0 0 0 0 0 0 0 0 0 0 0 0 0.25 0"/>
<feBlend mode="normal" in2="shape" result="effect1_innerShadow_590_6637"/>
</filter>
<filter id="filter1_i_590_6637" x="32.7856" y="23.7246" width="63.3354" height="85.2749" filterUnits="userSpaceOnUse" color-interpolation-filters="sRGB">
<feFlood flood-opacity="0" result="BackgroundImageFix"/>
<feBlend mode="normal" in="SourceGraphic" in2="BackgroundImageFix" result="shape"/>
<feColorMatrix in="SourceAlpha" type="matrix" values="0 0 0 0 0 0 0 0 0 0 0 0 0 0 0 0 0 0 127 0" result="hardAlpha"/>
<feOffset dx="0.810841"/>
<feComposite in2="hardAlpha" operator="arithmetic" k2="-1" k3="1"/>
<feColorMatrix type="matrix" values="0 0 0 0 0 0 0 0 0 0 0 0 0 0 0 0 0 0 0.25 0"/>
<feBlend mode="normal" in2="shape" result="effect1_innerShadow_590_6637"/>
</filter>
</defs>
</svg>
