<svg width="187" height="64" viewBox="0 0 187 64" fill="none" xmlns="http://www.w3.org/2000/svg">
<g filter="url(#filter0_i_318_2125)">
<path d="M55.7743 10.898C56.9612 9.9981 58.1773 8.99362 59.4785 8.11318C60.731 7.26436 61.7063 7.77997 61.7549 9.26845C61.9057 13.9236 62.0492 18.5787 62.1441 23.2363C62.1903 25.5833 61.4825 26.0892 59.3787 25.2039C55.6551 23.64 51.9485 22.0251 48.2565 20.3858C46.5613 19.6319 46.4543 18.4425 47.9233 17.2386C48.9472 16.3995 50.0003 15.5945 51.0681 14.7505C49.4482 12.4157 47.2982 10.8469 45.0509 9.53356C39.1165 6.06287 32.6761 4.96354 25.9853 6.59065C17.1882 8.72608 10.8767 14.0768 7.4936 22.4726C3.35651 32.7339 6.21672 44.0288 14.542 51.4152C20.2527 56.4838 26.9362 58.4831 34.3811 57.875C40.639 57.3643 46.0408 54.7667 50.443 50.187C53.8383 46.6555 56.1367 42.55 57.1679 37.7563C57.4136 36.6156 57.5984 35.4579 57.7395 34.2977C57.8951 33.0014 58.8266 32.0748 60.1449 32.0115C61.5896 31.9434 63.0002 32.8214 62.9345 34.1105C62.8154 36.4332 62.6013 38.7948 62.0225 41.0372C60.8015 45.7775 58.3305 49.9024 55.0665 53.5361C52.6368 56.2406 49.7377 58.3371 46.5248 60.047C42.0205 62.4451 37.1878 63.4958 32.1581 63.5347C25.3918 63.5857 19.1242 61.8078 13.5472 57.8604C9.06477 54.6865 5.55275 50.6588 3.18869 45.7045C0.58872 40.2541 -0.408463 34.5288 0.270108 28.4654C0.965704 22.2513 3.20085 16.7133 7.03636 11.8465C11.6696 5.95343 17.8084 2.34168 25.0902 0.77294C34.3494 -1.22143 42.8717 0.661061 50.5208 6.21853C52.3741 7.56351 53.9648 9.27088 55.7743 10.9004V10.898Z" fill="white"/>
</g>
<g filter="url(#filter1_i_318_2125)">
<path d="M31.7982 52.3553C31.5018 52.2929 31.2157 52.2327 30.9296 52.1725C30.0921 51.9956 29.2546 51.8194 28.4171 51.6425C28.1828 51.5924 28.1845 51.5915 28.233 51.3625C28.6203 49.539 29.006 47.7155 29.3942 45.8919C29.4141 45.8003 29.4307 45.7362 29.3036 45.7082C28.4269 45.5171 27.5509 45.3192 26.6751 45.1247C26.6612 45.1218 26.6451 45.1267 26.6143 45.1295C26.5375 45.4796 26.4591 45.8314 26.385 46.184C26.0581 47.7292 25.7312 49.2744 25.4087 50.8212C25.3823 50.9491 25.3445 50.9933 25.2001 50.9624C24.1125 50.7257 23.0236 50.4967 21.933 50.273C21.7835 50.2423 21.7541 50.1867 21.7859 50.0423C22.1827 48.1953 22.5734 46.3476 22.9659 44.4999C23.0122 44.2821 23.014 44.282 22.8005 44.2364C20.527 43.7476 18.2536 43.2597 15.9802 42.7709C15.93 42.7598 15.8797 42.7453 15.8139 42.7279C15.8314 42.6655 15.8424 42.6102 15.8628 42.5589C16.3631 41.2811 16.8668 40.005 17.3643 38.7256C17.4115 38.6038 17.4635 38.572 17.5967 38.6016C18.3802 38.7779 19.1658 38.9447 19.9514 39.1089C20.0845 39.1368 20.2222 39.1482 20.3578 39.1511C21.0078 39.1666 21.5089 38.7612 21.645 38.1233C22.302 35.0294 22.9608 31.9354 23.617 28.8406C24.0793 26.6636 24.5381 24.4858 24.9995 22.3088C25.153 21.5829 24.7973 20.8159 24.1242 20.4384C23.7146 20.2084 23.2592 20.1165 22.808 20.0193C22.1718 19.8832 21.5326 19.7584 20.8935 19.637C20.7527 19.6103 20.7031 19.5666 20.7371 19.4135C20.9916 18.244 21.2382 17.073 21.4875 15.902C21.4986 15.8518 21.514 15.8024 21.5329 15.7323C23.9349 16.2431 26.3284 16.7525 28.7356 17.264C28.8333 16.8034 28.9261 16.373 29.0172 15.9426C29.3273 14.4795 29.6382 13.0163 29.9456 11.5516C29.9735 11.4193 30.013 11.3716 30.1652 11.4048C31.2475 11.6409 32.3322 11.8674 33.4175 12.0913C33.5584 12.1206 33.6037 12.1653 33.5698 12.3218C33.1804 14.1343 32.7996 15.9481 32.4162 17.7621C32.4081 17.8018 32.4027 17.8423 32.3936 17.8984C32.7227 17.9622 33.0414 18.0229 33.3584 18.0863C33.9243 18.1983 34.4917 18.3068 35.0553 18.4275C35.1824 18.4547 35.2173 18.4243 35.243 18.3025C35.6179 16.5154 35.998 14.729 36.3763 12.9418C36.4212 12.7318 36.4211 12.7292 36.6147 12.7704C37.7073 13.0026 38.7982 13.2384 39.8923 13.4654C40.0237 13.4925 40.0367 13.5469 40.0124 13.6601C39.6204 15.4967 39.2319 17.334 38.8416 19.1714C38.7967 19.3823 38.7959 19.3814 39.0067 19.4477C40.334 19.8663 41.6273 20.3642 42.8254 21.0825C43.8579 21.702 44.7691 22.4553 45.4157 23.4891C45.8222 24.1394 46.0874 24.8436 46.1772 25.6072C46.3642 27.2028 46.1128 28.723 45.3273 30.1318C44.6192 31.4015 43.5056 32.1709 42.1407 32.6054C42.072 32.6275 42.0033 32.648 41.9193 32.675C42.2564 32.8654 42.5807 33.0375 42.8937 33.2279C43.6285 33.6753 44.2841 34.2155 44.807 34.9046C45.5035 35.8217 45.8715 36.8602 45.8857 38.0081C45.914 40.1823 45.313 42.1738 44.0409 43.9396C43.1457 45.1816 41.904 45.9436 40.4424 46.3591C39.7171 46.565 38.979 46.6976 38.225 46.7226C37.5789 46.7447 36.9295 46.7901 36.2863 46.7477C35.2665 46.6801 34.2497 46.5515 33.2327 46.4401C33.1018 46.4259 33.0582 46.454 33.0318 46.5802C32.639 48.4442 32.2419 50.3067 31.8448 52.1701C31.833 52.2254 31.817 52.28 31.7981 52.3527L31.7982 52.3553ZM34.173 41.7073C34.4449 41.6831 34.7177 41.6605 34.9896 41.6337C35.5418 41.5798 36.0731 41.4417 36.5862 41.2296C38.4588 40.4555 38.8781 38.3221 38.2887 36.9681C37.973 36.2434 37.4335 35.7127 36.7943 35.2748C35.8949 34.6592 34.892 34.2694 33.8589 33.9466C32.4319 33.5007 30.9636 33.2423 29.4988 32.9641C29.2872 32.9236 29.2855 32.9254 29.2452 33.1172C28.7192 35.6027 28.195 38.0889 27.6638 40.5737C27.6315 40.7258 27.6659 40.7761 27.8137 40.8069C28.7132 40.9911 29.6076 41.1986 30.51 41.3673C31.719 41.5946 32.9381 41.7417 34.1738 41.7081L34.173 41.7073ZM35.3631 30.0455C35.3662 30.0608 35.3685 30.0753 35.3716 30.0907C35.9017 29.9938 36.4434 29.9343 36.9608 29.7924C38.9377 29.2479 39.462 27.3937 39.1346 25.9987C38.9446 25.1906 38.417 24.6081 37.756 24.1384C37.023 23.618 36.2006 23.287 35.3503 23.0152C34.1668 22.6378 32.9441 22.4351 31.7294 22.1952C31.5921 22.1683 31.5608 22.2054 31.5352 22.329C31.061 24.5828 30.5835 26.8366 30.0998 29.089C30.0667 29.2446 30.106 29.2878 30.2503 29.3178C30.8561 29.443 31.4583 29.588 32.0649 29.7106C33.1526 29.9293 34.2504 30.0662 35.3632 30.0472L35.3631 30.0455Z" fill="#F18E19"/>
</g>
<path d="M73.8727 37.2681V24.9538H78.4927C79.5518 24.9538 80.4564 25.2772 81.2064 25.9241C81.9563 26.5653 82.3313 27.3325 82.3313 28.2256C82.3313 28.7809 82.1681 29.3018 81.8418 29.7885C81.5212 30.2694 81.1148 30.5928 80.6224 30.7588C81.2808 30.8905 81.8218 31.234 82.2454 31.7893C82.6748 32.3446 82.8895 32.9973 82.8895 33.7472C82.8895 34.7319 82.5116 35.5649 81.7559 36.2462C81.0003 36.9274 80.09 37.2681 79.0252 37.2681H73.8727ZM76.4747 29.9173H78.3725C78.7389 29.9173 79.0481 29.797 79.3 29.5566C79.5576 29.3104 79.6864 29.0156 79.6864 28.6721C79.6864 28.3286 79.5604 28.0395 79.3085 27.8048C79.0566 27.5701 78.7446 27.4527 78.3725 27.4527H76.4747V29.9173ZM76.4747 34.7691H78.7933C79.194 34.7691 79.5347 34.6317 79.8152 34.3569C80.0957 34.0764 80.236 33.7387 80.236 33.3436C80.236 32.9486 80.0957 32.6108 79.8152 32.3303C79.5404 32.0441 79.2112 31.901 78.8276 31.901H76.4747V34.7691ZM83.8774 24.9538H86.4793V37.2681H83.8774V24.9538ZM97.2397 24.9538V27.4527H93.633V37.2681H91.031V27.4527H87.4415V24.9538H97.2397ZM108.97 34.0135C108.77 34.6833 108.406 35.2787 107.88 35.7996C107.359 36.3206 106.723 36.7242 105.973 37.0104C105.223 37.2967 104.425 37.4398 103.577 37.4398C102.415 37.4398 101.359 37.1622 100.409 36.6068C99.4584 36.0458 98.7142 35.2815 98.176 34.314C97.6379 33.3465 97.3688 32.2788 97.3688 31.1109C97.3688 30.2293 97.5263 29.3992 97.8411 28.6206C98.1617 27.8363 98.594 27.1636 99.1378 26.6025C99.6874 26.0415 100.346 25.5978 101.113 25.2715C101.886 24.9452 102.707 24.782 103.577 24.782C104.826 24.782 105.936 25.0826 106.909 25.6837C107.888 26.2791 108.53 27.0462 108.833 27.9851L106.514 29.0929C106.285 28.549 105.91 28.1168 105.389 27.7962C104.868 27.4756 104.264 27.3153 103.577 27.3153C102.536 27.3153 101.685 27.6731 101.027 28.3887C100.369 29.1043 100.039 30.0117 100.039 31.1109C100.039 32.2044 100.369 33.1118 101.027 33.8331C101.691 34.5545 102.541 34.9151 103.577 34.9151C104.31 34.9151 104.946 34.7348 105.484 34.3741C106.022 34.0135 106.388 33.5297 106.583 32.9229L108.97 34.0135ZM112.586 25.6064C113.548 25.0568 114.618 24.782 115.798 24.782C116.977 24.782 118.048 25.0568 119.009 25.6064C119.971 26.156 120.724 26.9146 121.268 27.8821C121.817 28.8496 122.092 29.9259 122.092 31.1109C122.092 32.296 121.817 33.3723 121.268 34.3398C120.724 35.3073 119.971 36.0658 119.009 36.6154C118.048 37.165 116.977 37.4398 115.798 37.4398C114.618 37.4398 113.548 37.165 112.586 36.6154C111.63 36.0658 110.88 35.3073 110.336 34.3398C109.792 33.3723 109.52 32.296 109.52 31.1109C109.52 29.9259 109.792 28.8496 110.336 27.8821C110.88 26.9146 111.63 26.156 112.586 25.6064ZM118.374 28.4059C117.687 27.6788 116.828 27.3153 115.798 27.3153C114.767 27.3153 113.908 27.6788 113.221 28.4059C112.534 29.1272 112.191 30.0289 112.191 31.1109C112.191 32.1929 112.534 33.0975 113.221 33.8245C113.908 34.5516 114.767 34.9151 115.798 34.9151C116.828 34.9151 117.687 34.5516 118.374 33.8245C119.061 33.0975 119.404 32.1929 119.404 31.1109C119.404 30.0289 119.061 29.1272 118.374 28.4059ZM123.26 24.9538H125.862V37.2681H123.26V24.9538ZM127.374 24.9538H129.59L134.596 32.1328V24.9538H137.198V37.2681H135.017L129.976 30.089V37.2681H127.374V24.9538ZM141.956 37.2681V24.9538H146.576C147.635 24.9538 148.54 25.2772 149.29 25.9241C150.04 26.5653 150.415 27.3325 150.415 28.2256C150.415 28.7809 150.252 29.3018 149.925 29.7885C149.605 30.2694 149.198 30.5928 148.706 30.7588C149.364 30.8905 149.905 31.234 150.329 31.7893C150.758 32.3446 150.973 32.9973 150.973 33.7472C150.973 34.7319 150.595 35.5649 149.839 36.2462C149.084 36.9274 148.173 37.2681 147.109 37.2681H141.956ZM144.558 29.9173H146.456C146.822 29.9173 147.132 29.797 147.383 29.5566C147.641 29.3104 147.77 29.0156 147.77 28.6721C147.77 28.3286 147.644 28.0395 147.392 27.8048C147.14 27.5701 146.828 27.4527 146.456 27.4527H144.558V29.9173ZM144.558 34.7691H146.877C147.278 34.7691 147.618 34.6317 147.899 34.3569C148.179 34.0764 148.319 33.7387 148.319 33.3436C148.319 32.9486 148.179 32.6108 147.899 32.3303C147.624 32.0441 147.295 31.901 146.911 31.901H144.558V34.7691ZM159.861 37.2681L159.088 35.2071H154.34L153.55 37.2681H150.784L155.679 24.9538H157.783L162.695 37.2681H159.861ZM155.198 32.9744H158.23L156.735 29.0414L155.198 32.9744ZM174.658 34.0135C174.457 34.6833 174.094 35.2787 173.567 35.7996C173.046 36.3206 172.411 36.7242 171.661 37.0104C170.911 37.2967 170.112 37.4398 169.265 37.4398C168.103 37.4398 167.046 37.1622 166.096 36.6068C165.146 36.0458 164.401 35.2815 163.863 34.314C163.325 33.3465 163.056 32.2788 163.056 31.1109C163.056 30.2293 163.214 29.3992 163.528 28.6206C163.849 27.8363 164.281 27.1636 164.825 26.6025C165.375 26.0415 166.033 25.5978 166.8 25.2715C167.573 24.9452 168.395 24.782 169.265 24.782C170.513 24.782 171.623 25.0826 172.597 25.6837C173.576 26.2791 174.217 27.0462 174.52 27.9851L172.202 29.0929C171.973 28.549 171.598 28.1168 171.077 27.7962C170.556 27.4756 169.952 27.3153 169.265 27.3153C168.223 27.3153 167.373 27.6731 166.714 28.3887C166.056 29.1043 165.727 30.0117 165.727 31.1109C165.727 32.2044 166.056 33.1118 166.714 33.8331C167.378 34.5545 168.229 34.9151 169.265 34.9151C169.998 34.9151 170.633 34.7348 171.171 34.3741C171.709 34.0135 172.076 33.5297 172.27 32.9229L174.658 34.0135ZM186.406 37.2681H182.988L178.299 31.3943V37.2681H175.697V24.9538H178.299V30.1663L182.679 24.9538H185.968L181.021 30.7588L186.406 37.2681Z" fill="white"/>
<defs>
<filter id="filter0_i_318_2125" x="0.0634155" y="0" width="62.8734" height="63.5356" filterUnits="userSpaceOnUse" color-interpolation-filters="sRGB">
<feFlood flood-opacity="0" result="BackgroundImageFix"/>
<feBlend mode="normal" in="SourceGraphic" in2="BackgroundImageFix" result="shape"/>
<feColorMatrix in="SourceAlpha" type="matrix" values="0 0 0 0 0 0 0 0 0 0 0 0 0 0 0 0 0 0 127 0" result="hardAlpha"/>
<feOffset dx="0.954783"/>
<feComposite in2="hardAlpha" operator="arithmetic" k2="-1" k3="1"/>
<feColorMatrix type="matrix" values="0 0 0 0 0 0 0 0 0 0 0 0 0 0 0 0 0 0 0.25 0"/>
<feBlend mode="normal" in2="shape" result="effect1_innerShadow_318_2125"/>
</filter>
<filter id="filter1_i_318_2125" x="15.8139" y="11.3945" width="30.4222" height="40.9609" filterUnits="userSpaceOnUse" color-interpolation-filters="sRGB">
<feFlood flood-opacity="0" result="BackgroundImageFix"/>
<feBlend mode="normal" in="SourceGraphic" in2="BackgroundImageFix" result="shape"/>
<feColorMatrix in="SourceAlpha" type="matrix" values="0 0 0 0 0 0 0 0 0 0 0 0 0 0 0 0 0 0 127 0" result="hardAlpha"/>
<feOffset dx="0.997553"/>
<feComposite in2="hardAlpha" operator="arithmetic" k2="-1" k3="1"/>
<feColorMatrix type="matrix" values="0 0 0 0 0 0 0 0 0 0 0 0 0 0 0 0 0 0 0.25 0"/>
<feBlend mode="normal" in2="shape" result="effect1_innerShadow_318_2125"/>
</filter>
</defs>
</svg>
