<svg width="187" height="64" viewBox="0 0 187 64" fill="none" xmlns="http://www.w3.org/2000/svg">
<g filter="url(#filter0_i_318_1830)">
<path d="M55.7741 10.898C56.961 9.9981 58.1771 8.99362 59.4783 8.11318C60.7308 7.26436 61.7061 7.77997 61.7548 9.26845C61.9056 13.9236 62.0491 18.5787 62.1439 23.2363C62.1901 25.5833 61.4824 26.0892 59.3786 25.2039C55.6549 23.64 51.9483 22.0251 48.2563 20.3858C46.5611 19.6319 46.4541 18.4425 47.9231 17.2386C48.947 16.3995 50.0002 15.5945 51.0679 14.7505C49.4481 12.4157 47.298 10.8469 45.0507 9.53356C39.1163 6.06287 32.6759 4.96354 25.9851 6.59065C17.188 8.72608 10.8765 14.0768 7.49342 22.4726C3.35633 32.7339 6.21654 44.0288 14.5418 51.4152C20.2525 56.4838 26.9361 58.4831 34.3809 57.875C40.6388 57.3643 46.0406 54.7667 50.4428 50.187C53.8381 46.6555 56.1365 42.55 57.1677 37.7563C57.4134 36.6156 57.5982 35.4579 57.7393 34.2977C57.8949 33.0014 58.8265 32.0748 60.1447 32.0115C61.5894 31.9434 63 32.8214 62.9344 34.1105C62.8152 36.4332 62.6012 38.7948 62.0223 41.0372C60.8014 45.7775 58.3303 49.9024 55.0663 53.5361C52.6366 56.2406 49.7375 58.3371 46.5246 60.047C42.0203 62.4451 37.1876 63.4958 32.1579 63.5347C25.3916 63.5857 19.124 61.8078 13.547 57.8604C9.06459 54.6865 5.55256 50.6588 3.18851 45.7045C0.588537 40.2541 -0.408646 34.5288 0.269925 28.4654C0.965521 22.2513 3.20067 16.7133 7.03618 11.8465C11.6694 5.95343 17.8082 2.34168 25.0901 0.77294C34.3493 -1.22143 42.8715 0.661061 50.5206 6.21853C52.3739 7.56351 53.9646 9.27088 55.7741 10.9004V10.898Z" fill="#0246FF"/>
</g>
<g filter="url(#filter1_i_318_1830)">
<path d="M31.798 52.3553C31.5015 52.2929 31.2154 52.2327 30.9294 52.1725C30.0918 51.9956 29.2543 51.8194 28.4168 51.6425C28.1826 51.5924 28.1843 51.5915 28.2328 51.3625C28.6201 49.539 29.0057 47.7155 29.3939 45.8919C29.4138 45.8003 29.4304 45.7362 29.3033 45.7082C28.4267 45.5171 27.5507 45.3192 26.6748 45.1247C26.661 45.1218 26.6449 45.1267 26.6141 45.1295C26.5373 45.4796 26.4589 45.8314 26.3847 46.184C26.0578 47.7292 25.731 49.2744 25.4084 50.8212C25.3821 50.9491 25.3442 50.9933 25.1999 50.9624C24.1123 50.7257 23.0233 50.4967 21.9328 50.273C21.7833 50.2423 21.7539 50.1867 21.7856 50.0423C22.1824 48.1953 22.5732 46.3476 22.9657 44.4999C23.012 44.2821 23.0137 44.282 22.8002 44.2364C20.5268 43.7476 18.2534 43.2597 15.9799 42.7709C15.9298 42.7598 15.8795 42.7453 15.8137 42.7279C15.8312 42.6655 15.8421 42.6102 15.8626 42.5589C16.3628 41.2811 16.8665 40.005 17.3641 38.7256C17.4112 38.6038 17.4633 38.572 17.5965 38.6016C18.3799 38.7779 19.1656 38.9447 19.9512 39.1089C20.0843 39.1368 20.2219 39.1482 20.3576 39.1511C21.0075 39.1666 21.5087 38.7612 21.6447 38.1233C22.3018 35.0294 22.9606 31.9354 23.6167 28.8406C24.079 26.6636 24.5379 24.4858 24.9993 22.3088C25.1528 21.5829 24.797 20.8159 24.124 20.4384C23.7143 20.2084 23.259 20.1165 22.8078 20.0193C22.1716 19.8832 21.5323 19.7584 20.8932 19.637C20.7525 19.6103 20.7029 19.5666 20.7369 19.4135C20.9913 18.244 21.238 17.073 21.4872 15.902C21.4983 15.8518 21.5137 15.8024 21.5327 15.7323C23.9347 16.2431 26.3281 16.7525 28.7353 17.264C28.8331 16.8034 28.9259 16.373 29.017 15.9426C29.327 14.4795 29.6379 13.0163 29.9454 11.5516C29.9733 11.4193 30.0128 11.3716 30.1649 11.4048C31.2473 11.6409 32.3319 11.8674 33.4173 12.0913C33.5582 12.1206 33.6035 12.1653 33.5696 12.3218C33.1801 14.1343 32.7993 15.9481 32.4159 17.7621C32.4079 17.8018 32.4025 17.8423 32.3933 17.8984C32.7224 17.9622 33.0411 18.0229 33.3582 18.0863C33.924 18.1983 34.4915 18.3068 35.0551 18.4275C35.1821 18.4547 35.2171 18.4243 35.2428 18.3025C35.6177 16.5154 35.9978 14.729 36.3761 12.9418C36.421 12.7318 36.4209 12.7292 36.6145 12.7704C37.707 13.0026 38.798 13.2384 39.8921 13.4654C40.0234 13.4925 40.0365 13.5469 40.0122 13.6601C39.6202 15.4967 39.2316 17.334 38.8413 19.1714C38.7965 19.3823 38.7956 19.3814 39.0064 19.4477C40.3337 19.8663 41.627 20.3642 42.8252 21.0825C43.8577 21.702 44.7688 22.4553 45.4155 23.4891C45.822 24.1394 46.0872 24.8436 46.1769 25.6072C46.3639 27.2028 46.1125 28.723 45.327 30.1318C44.6189 31.4015 43.5053 32.1709 42.1405 32.6054C42.0718 32.6275 42.003 32.648 41.9191 32.675C42.2561 32.8654 42.5805 33.0375 42.8935 33.2279C43.6282 33.6753 44.2839 34.2155 44.8068 34.9046C45.5033 35.8217 45.8713 36.8602 45.8854 38.0081C45.9137 40.1823 45.3127 42.1738 44.0406 43.9396C43.1454 45.1816 41.9037 45.9436 40.4422 46.3591C39.7169 46.565 38.9787 46.6976 38.2247 46.7226C37.5787 46.7447 36.9292 46.7901 36.2861 46.7477C35.2663 46.6801 34.2495 46.5515 33.2324 46.4401C33.1015 46.4259 33.0579 46.454 33.0315 46.5802C32.6388 48.4442 32.2416 50.3067 31.8446 52.1701C31.8328 52.2254 31.8167 52.28 31.7979 52.3527L31.798 52.3553ZM34.1727 41.7073C34.4446 41.6831 34.7175 41.6605 34.9893 41.6337C35.5416 41.5798 36.0728 41.4417 36.586 41.2296C38.4586 40.4555 38.8778 38.3221 38.2885 36.9681C37.9728 36.2434 37.4333 35.7127 36.7941 35.2748C35.8947 34.6592 34.8917 34.2694 33.8586 33.9466C32.4317 33.5007 30.9633 33.2423 29.4986 32.9641C29.287 32.9236 29.2853 32.9254 29.2449 33.1172C28.719 35.6027 28.1947 38.0889 27.6636 40.5737C27.6313 40.7258 27.6656 40.7761 27.8134 40.8069C28.713 40.9911 29.6073 41.1986 30.5097 41.3673C31.7188 41.5946 32.9378 41.7417 34.1736 41.7081L34.1727 41.7073ZM35.3629 30.0455C35.366 30.0608 35.3682 30.0753 35.3713 30.0907C35.9015 29.9938 36.4432 29.9343 36.9606 29.7924C38.9374 29.2479 39.4618 27.3937 39.1343 25.9987C38.9444 25.1906 38.4167 24.6081 37.7558 24.1384C37.0228 23.618 36.2004 23.287 35.35 23.0152C34.1666 22.6378 32.9438 22.4351 31.7292 22.1952C31.5919 22.1683 31.5606 22.2054 31.5349 22.329C31.0608 24.5828 30.5832 26.8366 30.0996 29.089C30.0665 29.2446 30.1058 29.2878 30.2501 29.3178C30.8559 29.443 31.4581 29.588 32.0646 29.7106C33.1524 29.9293 34.2501 30.0662 35.3629 30.0472L35.3629 30.0455Z" fill="#F18E19"/>
</g>
<path d="M73.8725 37.2681V24.9538H78.4926C79.5517 24.9538 80.4562 25.2772 81.2062 25.9241C81.9561 26.5653 82.3311 27.3325 82.3311 28.2256C82.3311 28.7809 82.168 29.3018 81.8416 29.7885C81.521 30.2694 81.1146 30.5928 80.6222 30.7588C81.2806 30.8905 81.8216 31.234 82.2452 31.7893C82.6746 32.3446 82.8893 32.9973 82.8893 33.7472C82.8893 34.7319 82.5114 35.5649 81.7558 36.2462C81.0001 36.9274 80.0898 37.2681 79.025 37.2681H73.8725ZM76.4745 29.9173H78.3723C78.7387 29.9173 79.0479 29.797 79.2998 29.5566C79.5574 29.3104 79.6862 29.0156 79.6862 28.6721C79.6862 28.3286 79.5603 28.0395 79.3084 27.8048C79.0565 27.5701 78.7445 27.4527 78.3723 27.4527H76.4745V29.9173ZM76.4745 34.7691H78.7931C79.1939 34.7691 79.5345 34.6317 79.815 34.3569C80.0955 34.0764 80.2358 33.7387 80.2358 33.3436C80.2358 32.9486 80.0955 32.6108 79.815 32.3303C79.5402 32.0441 79.211 31.901 78.8275 31.901H76.4745V34.7691ZM83.8772 24.9538H86.4792V37.2681H83.8772V24.9538ZM97.2395 24.9538V27.4527H93.6328V37.2681H91.0308V27.4527H87.4413V24.9538H97.2395ZM108.97 34.0135C108.77 34.6833 108.406 35.2787 107.88 35.7996C107.359 36.3206 106.723 36.7242 105.973 37.0104C105.223 37.2967 104.425 37.4398 103.577 37.4398C102.415 37.4398 101.359 37.1622 100.409 36.6068C99.4582 36.0458 98.714 35.2815 98.1759 34.314C97.6377 33.3465 97.3686 32.2788 97.3686 31.1109C97.3686 30.2293 97.5261 29.3992 97.8409 28.6206C98.1615 27.8363 98.5938 27.1636 99.1376 26.6025C99.6872 26.0415 100.346 25.5978 101.113 25.2715C101.886 24.9452 102.707 24.782 103.577 24.782C104.825 24.782 105.936 25.0826 106.909 25.6837C107.888 26.2791 108.529 27.0462 108.833 27.9851L106.514 29.0929C106.285 28.549 105.91 28.1168 105.389 27.7962C104.868 27.4756 104.264 27.3153 103.577 27.3153C102.535 27.3153 101.685 27.6731 101.027 28.3887C100.368 29.1043 100.039 30.0117 100.039 31.1109C100.039 32.2044 100.368 33.1118 101.027 33.8331C101.691 34.5545 102.541 34.9151 103.577 34.9151C104.31 34.9151 104.946 34.7348 105.484 34.3741C106.022 34.0135 106.388 33.5297 106.583 32.9229L108.97 34.0135ZM112.586 25.6064C113.548 25.0568 114.618 24.782 115.797 24.782C116.977 24.782 118.047 25.0568 119.009 25.6064C119.971 26.156 120.724 26.9146 121.268 27.8821C121.817 28.8496 122.092 29.9259 122.092 31.1109C122.092 32.296 121.817 33.3723 121.268 34.3398C120.724 35.3073 119.971 36.0658 119.009 36.6154C118.047 37.165 116.977 37.4398 115.797 37.4398C114.618 37.4398 113.548 37.165 112.586 36.6154C111.63 36.0658 110.88 35.3073 110.336 34.3398C109.792 33.3723 109.52 32.296 109.52 31.1109C109.52 29.9259 109.792 28.8496 110.336 27.8821C110.88 26.9146 111.63 26.156 112.586 25.6064ZM118.374 28.4059C117.687 27.6788 116.828 27.3153 115.797 27.3153C114.767 27.3153 113.908 27.6788 113.221 28.4059C112.534 29.1272 112.191 30.0289 112.191 31.1109C112.191 32.1929 112.534 33.0975 113.221 33.8245C113.908 34.5516 114.767 34.9151 115.797 34.9151C116.828 34.9151 117.687 34.5516 118.374 33.8245C119.061 33.0975 119.404 32.1929 119.404 31.1109C119.404 30.0289 119.061 29.1272 118.374 28.4059ZM123.26 24.9538H125.862V37.2681H123.26V24.9538ZM127.374 24.9538H129.59L134.596 32.1328V24.9538H137.198V37.2681H135.017L129.976 30.089V37.2681H127.374V24.9538ZM141.956 37.2681V24.9538H146.576C147.635 24.9538 148.54 25.2772 149.29 25.9241C150.04 26.5653 150.415 27.3325 150.415 28.2256C150.415 28.7809 150.251 29.3018 149.925 29.7885C149.605 30.2694 149.198 30.5928 148.706 30.7588C149.364 30.8905 149.905 31.234 150.329 31.7893C150.758 32.3446 150.973 32.9973 150.973 33.7472C150.973 34.7319 150.595 35.5649 149.839 36.2462C149.084 36.9274 148.173 37.2681 147.108 37.2681H141.956ZM144.558 29.9173H146.456C146.822 29.9173 147.131 29.797 147.383 29.5566C147.641 29.3104 147.77 29.0156 147.77 28.6721C147.77 28.3286 147.644 28.0395 147.392 27.8048C147.14 27.5701 146.828 27.4527 146.456 27.4527H144.558V29.9173ZM144.558 34.7691H146.877C147.277 34.7691 147.618 34.6317 147.898 34.3569C148.179 34.0764 148.319 33.7387 148.319 33.3436C148.319 32.9486 148.179 32.6108 147.898 32.3303C147.624 32.0441 147.295 31.901 146.911 31.901H144.558V34.7691ZM159.861 37.2681L159.088 35.2071H154.339L153.549 37.2681H150.784L155.679 24.9538H157.783L162.695 37.2681H159.861ZM155.198 32.9744H158.229L156.735 29.0414L155.198 32.9744ZM174.657 34.0135C174.457 34.6833 174.094 35.2787 173.567 35.7996C173.046 36.3206 172.41 36.7242 171.66 37.0104C170.91 37.2967 170.112 37.4398 169.265 37.4398C168.102 37.4398 167.046 37.1622 166.096 36.6068C165.145 36.0458 164.401 35.2815 163.863 34.314C163.325 33.3465 163.056 32.2788 163.056 31.1109C163.056 30.2293 163.213 29.3992 163.528 28.6206C163.849 27.8363 164.281 27.1636 164.825 26.6025C165.374 26.0415 166.033 25.5978 166.8 25.2715C167.573 24.9452 168.394 24.782 169.265 24.782C170.513 24.782 171.623 25.0826 172.596 25.6837C173.575 26.2791 174.217 27.0462 174.52 27.9851L172.201 29.0929C171.972 28.549 171.597 28.1168 171.077 27.7962C170.556 27.4756 169.952 27.3153 169.265 27.3153C168.223 27.3153 167.372 27.6731 166.714 28.3887C166.056 29.1043 165.727 30.0117 165.727 31.1109C165.727 32.2044 166.056 33.1118 166.714 33.8331C167.378 34.5545 168.228 34.9151 169.265 34.9151C169.997 34.9151 170.633 34.7348 171.171 34.3741C171.709 34.0135 172.076 33.5297 172.27 32.9229L174.657 34.0135ZM186.405 37.2681H182.988L178.299 31.3943V37.2681H175.697V24.9538H178.299V30.1663L182.678 24.9538H185.967L181.021 30.7588L186.405 37.2681Z" fill="#0246FF"/>
<defs>
<filter id="filter0_i_318_1830" x="0.0632324" y="0" width="62.8733" height="63.5356" filterUnits="userSpaceOnUse" color-interpolation-filters="sRGB">
<feFlood flood-opacity="0" result="BackgroundImageFix"/>
<feBlend mode="normal" in="SourceGraphic" in2="BackgroundImageFix" result="shape"/>
<feColorMatrix in="SourceAlpha" type="matrix" values="0 0 0 0 0 0 0 0 0 0 0 0 0 0 0 0 0 0 127 0" result="hardAlpha"/>
<feOffset dx="0.954783"/>
<feComposite in2="hardAlpha" operator="arithmetic" k2="-1" k3="1"/>
<feColorMatrix type="matrix" values="0 0 0 0 0 0 0 0 0 0 0 0 0 0 0 0 0 0 0.25 0"/>
<feBlend mode="normal" in2="shape" result="effect1_innerShadow_318_1830"/>
</filter>
<filter id="filter1_i_318_1830" x="15.8137" y="11.3945" width="30.4221" height="40.9609" filterUnits="userSpaceOnUse" color-interpolation-filters="sRGB">
<feFlood flood-opacity="0" result="BackgroundImageFix"/>
<feBlend mode="normal" in="SourceGraphic" in2="BackgroundImageFix" result="shape"/>
<feColorMatrix in="SourceAlpha" type="matrix" values="0 0 0 0 0 0 0 0 0 0 0 0 0 0 0 0 0 0 127 0" result="hardAlpha"/>
<feOffset dx="0.997553"/>
<feComposite in2="hardAlpha" operator="arithmetic" k2="-1" k3="1"/>
<feColorMatrix type="matrix" values="0 0 0 0 0 0 0 0 0 0 0 0 0 0 0 0 0 0 0.25 0"/>
<feBlend mode="normal" in2="shape" result="effect1_innerShadow_318_1830"/>
</filter>
</defs>
</svg>
