<svg width="132" height="133" viewBox="0 0 132 133" fill="none" xmlns="http://www.w3.org/2000/svg">
<g filter="url(#filter0_i_1548_1157)">
<path d="M116.536 22.6883C119.007 20.8148 121.539 18.7236 124.248 16.8907C126.855 15.1235 128.886 16.197 128.987 19.2958C129.301 28.9872 129.6 38.6787 129.797 48.3752C129.893 53.2614 128.42 54.3146 124.04 52.4715C116.288 49.2157 108.571 45.8536 100.885 42.4408C97.3557 40.8711 97.1329 38.3951 100.191 35.8887C102.323 34.1418 104.515 32.4658 106.738 30.7088C103.366 25.8479 98.8899 22.582 94.2113 19.8477C81.8564 12.6222 68.4484 10.3335 54.5189 13.7209C36.2044 18.1666 23.0647 29.3062 16.0215 46.7853C7.40856 68.1479 13.3632 91.6626 30.6954 107.04C42.5843 117.592 56.4987 121.755 71.9979 120.489C85.0262 119.425 96.2721 114.018 105.437 104.483C112.506 97.1311 117.29 88.584 119.437 78.604C119.949 76.2292 120.334 73.819 120.627 71.4037C120.951 68.7049 122.891 66.7757 125.635 66.6441C128.643 66.5023 131.579 68.3302 131.443 71.0138C131.195 75.8494 130.749 80.766 129.544 85.4345C127.002 95.3032 121.858 103.891 115.063 111.456C110.004 117.086 103.969 121.451 97.2797 125.01C87.9022 130.003 77.8411 132.19 67.3699 132.271C53.2834 132.378 40.2349 128.676 28.6244 120.458C19.2925 113.851 11.9809 105.466 7.05918 95.1513C1.64635 83.8041 -0.42966 71.8848 0.983043 59.2616C2.43119 46.3245 7.0845 34.795 15.0696 24.663C24.7154 12.3943 37.4956 4.87509 52.6555 1.60917C71.9321 -2.54286 89.6744 1.37625 105.599 12.9462C109.457 15.7463 112.769 19.3009 116.536 22.6934V22.6883Z" fill="#0246FF"/>
</g>
<g filter="url(#filter1_i_1548_1157)">
<path d="M66.6158 109C65.9986 108.87 65.403 108.745 64.8074 108.619C63.0638 108.251 61.3203 107.884 59.5767 107.516C59.089 107.412 59.0925 107.41 59.1934 106.933C59.9998 103.136 60.8026 99.3402 61.6108 95.5438C61.6523 95.353 61.6868 95.2197 61.4222 95.1612C59.5972 94.7635 57.7735 94.3515 55.95 93.9466C55.9212 93.9405 55.8876 93.9506 55.8235 93.9564C55.6637 94.6853 55.5004 95.4179 55.3461 96.1519C54.6655 99.3688 53.985 102.586 53.3136 105.806C53.2587 106.072 53.1798 106.164 52.8793 106.1C50.6152 105.607 48.348 105.13 46.0777 104.665C45.7664 104.601 45.7052 104.485 45.7713 104.184C46.5974 100.339 47.4109 96.4925 48.228 92.6457C48.3245 92.1923 48.328 92.1922 47.8835 92.0973C43.1505 91.0796 38.4175 90.0637 33.6845 89.0461C33.5801 89.023 33.4755 88.9928 33.3385 88.9566C33.3749 88.8267 33.3976 88.7116 33.4403 88.6048C34.4817 85.9447 35.5303 83.2878 36.5662 80.6244C36.6644 80.3709 36.7727 80.3045 37.05 80.3661C38.681 80.7332 40.3167 81.0805 41.9522 81.4224C42.2293 81.4804 42.5159 81.5042 42.7983 81.5102C44.1514 81.5426 45.1947 80.6984 45.478 79.3705C46.8459 72.9293 48.2174 66.4879 49.5834 60.0449C50.5459 55.5126 51.5011 50.9789 52.4618 46.4467C52.7814 44.9353 52.0407 43.3385 50.6394 42.5525C49.7866 42.0739 48.8387 41.8825 47.8992 41.6802C46.5748 41.3969 45.244 41.137 43.9134 40.8842C43.6204 40.8285 43.5171 40.7376 43.588 40.419C44.1177 37.9842 44.6312 35.5464 45.1501 33.1084C45.1731 33.004 45.2052 32.9011 45.2447 32.755C50.2454 33.8185 55.2282 34.8791 60.2397 35.944C60.4432 34.985 60.6364 34.0889 60.8261 33.1929C61.4716 30.1469 62.1189 27.1007 62.7589 24.0513C62.817 23.776 62.8992 23.6767 63.216 23.7458C65.4693 24.2372 67.7274 24.7088 69.987 25.175C70.2803 25.2361 70.3747 25.3291 70.3041 25.6548C69.4933 29.4282 68.7005 33.2044 67.9023 36.9809C67.8856 37.0636 67.8743 37.1479 67.8552 37.2647C68.5404 37.3975 69.2038 37.5239 69.864 37.6559C71.042 37.889 72.2233 38.1149 73.3967 38.3661C73.6612 38.4228 73.734 38.3595 73.7875 38.1059C74.568 34.3854 75.3593 30.6663 76.1469 26.9456C76.2403 26.5084 76.2401 26.503 76.6432 26.5887C78.9177 27.0722 81.189 27.563 83.4667 28.0357C83.7401 28.0921 83.7674 28.2054 83.7168 28.4411C82.9007 32.2646 82.0917 36.0897 81.2792 39.9148C81.1859 40.3539 81.184 40.3521 81.6229 40.4901C84.3862 41.3616 87.0787 42.3982 89.5731 43.8935C91.7226 45.1832 93.6196 46.7516 94.9657 48.9037C95.8121 50.2576 96.3642 51.7236 96.551 53.3134C96.9404 56.6352 96.417 59.8001 94.7816 62.7331C93.3074 65.3764 90.9891 66.9783 88.1477 67.8828C88.0047 67.9289 87.8615 67.9715 87.6867 68.0277C88.3883 68.4242 89.0636 68.7824 89.7153 69.1789C91.2449 70.1102 92.61 71.235 93.6985 72.6695C95.1486 74.5787 95.9147 76.7407 95.9442 79.1307C96.003 83.657 94.7519 87.8031 92.1035 91.4792C90.2398 94.065 87.6548 95.6513 84.6119 96.5165C83.102 96.9451 81.5652 97.221 79.9955 97.2732C78.6506 97.3192 77.2984 97.4136 75.9594 97.3254C73.8364 97.1847 71.7195 96.917 69.6021 96.685C69.3296 96.6554 69.2388 96.714 69.1839 96.9767C68.3662 100.857 67.5395 104.735 66.7128 108.614C66.6883 108.729 66.6548 108.843 66.6156 108.994L66.6158 109ZM71.5597 86.8319C72.1258 86.7814 72.6939 86.7345 73.2598 86.6787C74.4095 86.5664 75.5155 86.279 76.5839 85.8375C80.4824 84.2259 81.3552 79.7843 80.1282 76.9654C79.471 75.4567 78.3478 74.3519 77.0171 73.4403C75.1446 72.1586 73.0566 71.347 70.9058 70.6752C67.935 69.7467 64.8781 69.2088 61.8287 68.6296C61.3882 68.5452 61.3847 68.5489 61.3007 68.9483C60.2057 74.1228 59.1143 79.2989 58.0085 84.472C57.9412 84.7886 58.0128 84.8932 58.3204 84.9573C60.1932 85.3408 62.0551 85.7729 63.9338 86.1241C66.4509 86.5972 68.9888 86.9035 71.5616 86.8336L71.5597 86.8319ZM74.0374 62.5535C74.0439 62.5854 74.0486 62.6156 74.0551 62.6475C75.1587 62.4458 76.2866 62.3219 77.3637 62.0265C81.4792 60.8929 82.5709 57.0328 81.8892 54.1285C81.4937 52.4462 80.3952 51.2334 79.0193 50.2555C77.4932 49.1722 75.781 48.483 74.0108 47.9173C71.5469 47.1316 69.0013 46.7095 66.4726 46.21C66.1867 46.154 66.1216 46.2314 66.0682 46.4886C65.0811 51.1807 64.0868 55.873 63.0799 60.5622C63.0111 60.886 63.0929 60.976 63.3933 61.0385C64.6545 61.2991 65.9082 61.601 67.1709 61.8562C69.4355 62.3115 71.7209 62.5964 74.0376 62.557L74.0374 62.5535Z" fill="#F18E19"/>
</g>
<defs>
<filter id="filter0_i_1548_1157" x="0.552734" y="0" width="130.895" height="132.274" filterUnits="userSpaceOnUse" color-interpolation-filters="sRGB">
<feFlood flood-opacity="0" result="BackgroundImageFix"/>
<feBlend mode="normal" in="SourceGraphic" in2="BackgroundImageFix" result="shape"/>
<feColorMatrix in="SourceAlpha" type="matrix" values="0 0 0 0 0 0 0 0 0 0 0 0 0 0 0 0 0 0 127 0" result="hardAlpha"/>
<feOffset dx="0.776076"/>
<feComposite in2="hardAlpha" operator="arithmetic" k2="-1" k3="1"/>
<feColorMatrix type="matrix" values="0 0 0 0 0 0 0 0 0 0 0 0 0 0 0 0 0 0 0.25 0"/>
<feBlend mode="normal" in2="shape" result="effect1_innerShadow_1548_1157"/>
</filter>
<filter id="filter1_i_1548_1157" x="33.3384" y="23.7246" width="63.3354" height="85.2751" filterUnits="userSpaceOnUse" color-interpolation-filters="sRGB">
<feFlood flood-opacity="0" result="BackgroundImageFix"/>
<feBlend mode="normal" in="SourceGraphic" in2="BackgroundImageFix" result="shape"/>
<feColorMatrix in="SourceAlpha" type="matrix" values="0 0 0 0 0 0 0 0 0 0 0 0 0 0 0 0 0 0 127 0" result="hardAlpha"/>
<feOffset dx="0.810841"/>
<feComposite in2="hardAlpha" operator="arithmetic" k2="-1" k3="1"/>
<feColorMatrix type="matrix" values="0 0 0 0 0 0 0 0 0 0 0 0 0 0 0 0 0 0 0.25 0"/>
<feBlend mode="normal" in2="shape" result="effect1_innerShadow_1548_1157"/>
</filter>
</defs>
</svg>
