<svg width="18" height="19" viewBox="0 0 18 19" fill="none" xmlns="http://www.w3.org/2000/svg">
<path d="M6.375 14.7856H6C3 14.7856 1.5 14.0356 1.5 10.2856V6.53564C1.5 3.53564 3 2.03564 6 2.03564H12C15 2.03564 16.5 3.53564 16.5 6.53564V10.2856C16.5 13.2856 15 14.7856 12 14.7856H11.625C11.3925 14.7856 11.1675 14.8981 11.025 15.0856L9.9 16.5856C9.405 17.2456 8.595 17.2456 8.1 16.5856L6.975 15.0856C6.855 14.9206 6.5775 14.7856 6.375 14.7856Z" stroke="#292D32" stroke-width="1.5" stroke-miterlimit="10" stroke-linecap="round" stroke-linejoin="round"/>
<path d="M11.9973 8.78564H12.0041" stroke="#292D32" stroke-width="2" stroke-linecap="round" stroke-linejoin="round"/>
<path d="M8.99661 8.78564H9.00335" stroke="#292D32" stroke-width="2" stroke-linecap="round" stroke-linejoin="round"/>
<path d="M5.99588 8.78564H6.00262" stroke="#292D32" stroke-width="2" stroke-linecap="round" stroke-linejoin="round"/>
</svg>
