<svg width="343" height="19" viewBox="0 0 343 19" fill="none" xmlns="http://www.w3.org/2000/svg">
<line x1="0.5" y1="9.03564" x2="148" y2="9.03566" stroke="#EDF1F3" stroke-linecap="round"/>
<path d="M173.178 9.17201C173.178 10.0925 173.012 10.8879 172.679 11.5584C172.347 12.2288 171.891 12.7459 171.311 13.1095C170.732 13.4731 170.07 13.655 169.325 13.655C168.581 13.655 167.919 13.4731 167.34 13.1095C166.76 12.7459 166.304 12.2288 165.972 11.5584C165.639 10.8879 165.473 10.0925 165.473 9.17201C165.473 8.25155 165.639 7.4561 165.972 6.78564C166.304 6.11519 166.76 5.59814 167.34 5.23451C167.919 4.87087 168.581 4.68905 169.325 4.68905C170.07 4.68905 170.732 4.87087 171.311 5.23451C171.891 5.59814 172.347 6.11519 172.679 6.78564C173.012 7.4561 173.178 8.25155 173.178 9.17201ZM172.155 9.17201C172.155 8.41633 172.029 7.77854 171.776 7.25866C171.526 6.73877 171.186 6.3453 170.757 6.07826C170.331 5.81121 169.854 5.67769 169.325 5.67769C168.797 5.67769 168.318 5.81121 167.889 6.07826C167.463 6.3453 167.124 6.73877 166.871 7.25866C166.621 7.77854 166.496 8.41633 166.496 9.17201C166.496 9.92769 166.621 10.5655 166.871 11.0854C167.124 11.6052 167.463 11.9987 167.889 12.2658C168.318 12.5328 168.797 12.6663 169.325 12.6663C169.854 12.6663 170.331 12.5328 170.757 12.2658C171.186 11.9987 171.526 11.6052 171.776 11.0854C172.029 10.5655 172.155 9.92769 172.155 9.17201ZM174.698 13.5356V6.99019H175.67V7.97883H175.738C175.857 7.65496 176.073 7.39218 176.386 7.19047C176.698 6.98877 177.051 6.88792 177.443 6.88792C177.517 6.88792 177.609 6.88934 177.72 6.89218C177.83 6.89502 177.914 6.89928 177.971 6.90496V7.92769C177.937 7.91917 177.859 7.90638 177.737 7.88934C177.617 7.86945 177.491 7.85951 177.357 7.85951C177.039 7.85951 176.755 7.92627 176.505 8.05979C176.258 8.19047 176.062 8.37229 175.917 8.60525C175.775 8.83536 175.704 9.09814 175.704 9.3936V13.5356H174.698Z" fill="#6C7278"/>
<line x1="195" y1="9.03564" x2="342.5" y2="9.03566" stroke="#EDF1F3" stroke-linecap="round"/>
</svg>
