<svg width="219" height="204" viewBox="0 0 219 204" fill="none" xmlns="http://www.w3.org/2000/svg">
<path d="M22.5814 52.8497C34.7921 52.8497 44.6908 42.9116 44.6908 30.6524C44.6908 18.3931 34.7921 8.45508 22.5814 8.45508C10.3708 8.45508 0.472107 18.3931 0.472107 30.6524C0.472107 42.9116 10.3708 52.8497 22.5814 52.8497Z" fill="#8CABEF"/>
<path d="M33.4897 35.3399C31.7656 35.3399 30.2737 36.3538 29.5799 37.8162L20.2393 36.5505C20.1659 34.8558 19.4107 33.3351 18.2413 32.2556L23.5225 24.6277C24.1411 24.8907 24.8207 25.0363 25.5341 25.0363C28.3771 25.0363 30.6904 22.7245 30.6904 19.8834C30.6904 17.0419 28.3774 14.7305 25.5341 14.7305C22.691 14.7305 20.3777 17.0422 20.3777 19.8834C20.3777 21.0995 20.8018 22.2184 21.5093 23.1006L16.0739 30.9515C15.4311 30.7266 14.741 30.604 14.0223 30.604C10.5908 30.604 7.79919 33.394 7.79919 36.8231C7.79919 40.2525 10.5908 43.0422 14.0223 43.0422C16.6414 43.0422 18.8872 41.4169 19.8044 39.1228L29.2286 40.3996C29.5802 42.432 31.357 43.9829 33.4897 43.9829C35.8743 43.9829 37.814 42.0441 37.814 39.6611C37.814 37.2781 35.8743 35.3399 33.4897 35.3399Z" fill="white"/>
<path d="M140.306 89.2331C140.388 89.2105 140.472 89.1941 140.557 89.186C141.353 89.1108 141.785 89.7814 142.483 89.9109C142.794 89.9685 143.619 89.5029 143.715 90.019C143.749 90.2098 143.919 90.842 144.05 91.487C144.344 91.9485 144.619 92.4243 144.955 92.8561C145.807 93.9487 148.894 95.2528 148.078 96.9713C147.921 97.3037 147.757 97.6438 147.494 97.9006C147.278 98.1106 147.007 98.2531 146.734 98.3798C146.522 98.4786 146.208 98.6862 145.993 98.6084C145.768 98.527 145.455 98.0096 145.29 97.8266C144.819 97.3034 144.349 96.7802 143.878 96.2573C143.416 95.744 142.824 95.1828 142.145 95.3051C141.996 95.3317 141.853 95.3915 141.702 95.3977C141.532 95.4048 141.367 95.3435 141.21 95.2785C140.633 95.0403 140.06 94.7497 139.553 94.3826C138.646 93.7259 138.707 91.9724 138.67 90.9882C138.661 90.7432 138.66 90.4892 138.758 90.2646C138.917 89.8991 139.299 89.6916 139.655 89.511C139.865 89.4035 140.08 89.2951 140.306 89.2331Z" fill="#EFBBBB"/>
<path d="M157.528 108.318C156.646 108.251 155.752 108.181 154.919 107.883C154.255 107.646 153.65 107.27 153.061 106.882C149.408 104.477 146.132 101.5 143.391 98.0921C144.528 96.3773 146.008 94.891 147.718 93.7471C150.549 95.9594 153.557 97.9459 156.704 99.6815C157.347 100.036 158.005 100.384 158.72 100.555C159.75 100.801 160.828 100.665 161.878 100.527C165.95 99.9944 170.021 99.4613 174.093 98.9285C176.55 98.6069 179.097 98.2922 181.464 99.026C188.025 101.061 186.423 109.601 180.033 110.095C172.858 110.65 164.724 108.864 157.528 108.318Z" fill="#8CABEF"/>
<path d="M98.7726 111.929C127.721 111.929 151.189 88.4616 151.189 59.5127C151.189 30.5639 127.721 7.09619 98.7726 7.09619C69.8238 7.09619 46.3561 30.5639 46.3561 59.5127C46.3561 88.4616 69.8238 111.929 98.7726 111.929Z" fill="#353A85"/>
<path d="M140.842 41.3916C138.542 35.8477 135.25 30.8695 131.058 26.5948C126.865 22.3204 121.982 18.9638 116.545 16.6192C110.914 14.191 104.934 12.96 98.7716 12.96C92.6085 12.96 86.6288 14.1913 80.9983 16.6192C75.561 18.9641 70.6782 22.3204 66.4859 26.5948C62.2932 30.8695 59.0014 35.8477 56.7017 41.3916C54.3203 47.1324 53.1125 53.2292 53.1125 59.513C53.1125 65.7969 54.3199 71.8933 56.7017 77.6341C59.0014 83.178 62.2932 88.1562 66.4859 92.4309C70.6785 96.7053 75.561 100.062 80.9983 102.407C86.6288 104.835 92.6088 106.066 98.7716 106.066C104.935 106.066 110.914 104.834 116.545 102.407C121.982 100.062 126.865 96.7053 131.058 92.4309C135.25 88.1562 138.542 83.178 140.842 77.6341C143.223 71.8933 144.431 65.7965 144.431 59.513C144.431 53.2295 143.223 47.1324 140.842 41.3916ZM139.836 59.5127C139.836 62.939 139.434 66.3021 138.655 69.5468H124.93C125.753 65.7736 126.167 61.9394 126.167 58.0776C126.167 54.4437 125.8 50.8768 125.072 47.4037H138.101C139.244 51.2807 139.836 55.3504 139.836 59.5127ZM127.808 29.9074C131.489 33.6599 134.384 37.9993 136.411 42.7186H123.852C123.392 41.2466 122.865 39.7944 122.27 38.3649C120.206 33.4102 117.333 28.7198 113.729 24.4243C111.865 22.2017 110.003 20.3202 108.308 18.7727C115.632 20.5405 122.353 24.345 127.808 29.9074ZM101.069 18.8371C103.221 20.4122 106.727 23.2847 110.237 27.4696C113.535 31.4008 116.16 35.6829 118.04 40.1962C118.387 41.0285 118.708 41.8698 119.003 42.7186H101.069V18.8371ZM120.361 47.4037C121.166 50.8635 121.572 54.4326 121.572 58.0776C121.572 61.9419 121.115 65.7786 120.211 69.5468H101.069V47.4037H120.361ZM76.5792 58.0776C76.5792 54.4326 76.9853 50.8635 77.7901 47.4037H96.474V69.5468H77.9397C77.0358 65.7786 76.5792 61.9422 76.5792 58.0776ZM96.474 19.2955V42.7189H79.1475C79.4321 41.9027 79.7394 41.0936 80.0709 40.2928C81.9328 35.7938 84.5355 31.5228 87.8063 27.5984C91.0238 23.7379 94.2732 20.9664 96.474 19.2955ZM69.735 29.9074C75.3919 24.1399 82.4086 20.2626 90.048 18.5862C88.2985 20.1681 86.3615 22.1116 84.4215 24.4243C80.818 28.7198 77.9446 33.4102 75.881 38.3649C75.2856 39.7944 74.7587 41.2466 74.299 42.7186H61.1326C63.1596 37.9997 66.0547 33.6599 69.735 29.9074ZM59.4425 47.4037H73.0792C72.3513 50.8765 71.9842 54.4437 71.9842 58.0776C71.9842 61.9394 72.3986 65.7736 73.2204 69.5468H58.8883C58.109 66.3021 57.7075 62.9387 57.7075 59.5127C57.7075 55.3504 58.2998 51.2807 59.4425 47.4037ZM69.735 89.118C65.5213 84.8219 62.3366 79.756 60.3061 74.232H74.4617C74.878 75.5649 75.3457 76.8885 75.8661 78.201C77.9174 83.3734 80.7728 88.3795 84.3533 93.0802C86.6923 96.1508 89.0249 98.6797 91.0256 100.641C83.0074 99.0886 75.6323 95.1308 69.735 89.118ZM87.9822 90.2065C84.6615 85.8469 82.0183 81.2169 80.126 76.445C79.8348 75.7111 79.5619 74.9733 79.3064 74.2323H96.474V99.3699C94.2887 97.4363 91.1356 94.3462 87.9822 90.2065ZM101.069 99.8953V74.232H118.844C118.599 74.9438 118.337 75.6529 118.059 76.3582C116.182 81.1162 113.558 85.7344 110.261 90.0851C106.786 94.6695 103.276 97.998 101.069 99.8953ZM127.808 89.118C122.099 94.9387 115.005 98.8343 107.284 100.485C109.249 98.5465 111.52 96.07 113.798 93.0802C117.378 88.3795 120.234 83.3734 122.285 78.201C122.805 76.8888 123.273 75.5652 123.69 74.232H137.238C135.207 79.756 132.022 84.8216 127.808 89.118Z" fill="white"/>
<path d="M211.059 194.185C210.555 194.777 209.923 195.212 209.357 195.729C207.298 194.04 205.415 192.33 203.746 190.207C205.281 190.026 205.585 188.695 207.355 190.114C207.927 190.573 210.069 193.532 211.059 194.185Z" fill="#EFBBBB"/>
<path d="M208.114 194.914C207.727 195.212 207.695 195.565 207.695 195.998C207.695 196.25 207.788 196.505 207.727 196.752C207.666 197 207.536 197.178 207.376 197.393C206.536 198.525 204.317 200.874 207.21 201.181C209.837 201.459 212.005 197.82 213.192 195.657C213.27 195.515 213.365 195.376 213.352 195.208C213.34 195.041 213.264 194.866 213.164 194.708C212.607 193.832 211.934 192.712 210.794 193.34C210.307 193.608 210.239 194.2 209.721 194.482C209.298 194.713 208.5 194.617 208.114 194.914Z" fill="#292949"/>
<path d="M200.035 150.37C200.364 155.592 195.737 163.233 197.071 167.49C199.861 176.396 202.788 181.486 207.88 188.541C208.244 189.045 209.449 190.173 209.968 190.81C208.721 192.438 207.278 193.58 205.666 194.953C198.203 188.586 191.542 184.467 186.722 174.737C182.913 167.046 181.572 154.56 179.588 145.488C179.26 143.985 178.761 141.819 179.755 140.451C180.518 139.402 181.594 138.944 182.956 138.614C186.6 137.732 191.584 135.822 195.006 138.123C198.747 140.639 199.782 146.357 200.035 150.37Z" fill="#5D66D3"/>
<path d="M165.967 199.018C165.181 199.18 164.39 199.101 163.604 199.187C162.972 196.448 162.475 193.762 162.44 190.911C163.821 191.816 164.867 190.965 165.398 193.295C165.57 194.049 165.53 197.839 165.967 199.018Z" fill="#EFBBBB"/>
<path d="M163.106 197.725C162.614 197.725 162.369 198.011 162.098 198.348C161.94 198.544 161.863 198.821 161.679 198.993C161.494 199.166 161.274 199.218 161.011 199.283C159.631 199.625 156.409 200.114 158.511 202.161C160.42 204.02 164.383 202.498 166.677 201.537C166.828 201.474 166.994 201.421 167.093 201.282C167.192 201.143 167.235 200.952 167.257 200.768C167.379 199.741 167.546 198.382 166.255 198.164C165.704 198.072 165.243 198.498 164.653 198.393C164.17 198.306 163.598 197.724 163.106 197.725Z" fill="#292949"/>
<path d="M186.498 157.786C182.721 161.558 171.909 164.327 170.15 168.669C169.444 170.41 167.122 183.291 166.769 192.359C166.743 193.007 167.04 194.697 167.047 195.554C165.032 196.131 163.221 196.01 161.049 196.163C159.463 185.713 157.818 167.413 157.818 167.413C159.967 158.274 170.339 147.794 176.094 139.56C177.047 138.196 178.162 136.329 179.873 136.099C181.185 135.923 182.221 136.387 183.401 137.154C186.557 139.207 191.387 141.494 192.086 145.584C192.852 150.055 189.401 154.888 186.498 157.786Z" fill="#5D66D3"/>
<path d="M184.875 101.098C188.347 104.148 191.231 108.47 193.263 113.192C196.861 121.554 198.238 131.115 199.564 140.489C200.005 143.609 200.446 146.73 200.888 149.85C201.322 152.919 201.214 153.632 198.7 153.857C194.042 154.275 189.131 154.215 184.622 152.525C182.477 151.721 180.412 150.539 178.21 150.038C175.007 149.308 172.031 150.774 168.933 150.56C169.255 147.281 169.987 144.175 170.059 140.804C170.131 137.429 169.918 134.054 169.622 130.702C169.105 124.846 168.836 118.961 168.354 113.118C168.009 108.933 167.138 105.656 169.993 102.12C171.547 100.196 174.396 96.8532 176.973 96.8984C179.708 96.9461 182.934 99.3939 184.875 101.098Z" fill="#8CABEF"/>
<path d="M169.698 95.6165C170.65 96.5164 171.849 97.1028 172.932 97.84C173.986 98.5574 174.581 99.351 175.217 100.42C175.675 101.193 176.23 101.717 177.278 101.456C179.256 100.965 178.096 99.6363 178.065 98.3406C178.031 96.8593 178.655 95.4251 178.915 93.9856C179.664 89.8258 176.416 83.5181 171.505 83.8796C166.136 84.2752 166.808 92.886 169.698 95.6165Z" fill="#EFBBBB"/>
<path d="M176.091 88.4503C176.629 88.7975 176.926 89.549 176.628 90.1156C176.468 90.4188 176.172 90.6289 175.989 90.9188C175.452 91.7688 176.077 92.8988 176.864 93.5245C177.651 94.1502 178.638 94.5827 179.169 95.4367C181.845 93.268 183.894 90.1252 184.081 86.6849C184.216 84.2022 183.228 81.6154 181.379 79.934C179.209 77.9605 177.014 78.0689 174.19 77.8282C173.028 77.7291 171.832 77.6331 170.715 77.9722C169.699 78.2811 168.816 78.9319 167.809 79.2717C166.142 79.8345 164.025 79.6304 162.951 81.024C162.33 81.8303 162.292 82.9758 162.636 83.9339C162.979 84.892 163.653 85.694 164.367 86.4189C165.329 87.3946 166.389 88.2734 167.527 89.0367C166.986 88.6739 168.858 86.5868 169.285 86.4954C170.292 86.2788 171.888 87.4234 172.92 87.6697C173.913 87.9066 175.212 87.8831 176.091 88.4503Z" fill="#292949"/>
<path d="M102.799 84.6367L119.093 152.05L132.332 138.723L148.07 159.256L155.583 153.498L163.095 147.739L147.356 127.207L163.665 117.885L102.799 84.6367Z" fill="#292949"/>
<path d="M164.143 146.679C162.372 144.369 160.602 142.059 158.831 139.75C156.007 136.065 153.183 132.38 150.359 128.696C149.862 128.048 149.366 127.401 148.87 126.754C153.425 124.15 157.98 121.547 162.536 118.943C163.216 118.555 163.896 118.166 164.576 117.777C165.061 117.5 164.836 116.825 164.443 116.61C162.421 115.506 160.4 114.401 158.378 113.297C153.524 110.645 148.671 107.994 143.817 105.343C137.968 102.148 132.118 98.9524 126.27 95.7572C121.211 92.9938 116.153 90.2307 111.094 87.4676C109.415 86.5504 107.736 85.6332 106.057 84.716C105.271 84.2864 104.494 83.7997 103.683 83.4187C103.647 83.4017 103.612 83.3803 103.578 83.3614C103.316 83.2183 103.082 83.2707 102.915 83.4153C102.694 83.52 102.549 83.74 102.627 84.0609C103.168 86.3001 103.709 88.5394 104.25 90.7784C105.55 96.1543 106.849 101.53 108.148 106.906C109.714 113.384 111.28 119.862 112.846 126.341C114.2 131.944 115.554 137.546 116.908 143.149C117.57 145.885 118.224 148.624 118.893 151.358C118.902 151.397 118.911 151.436 118.921 151.475C119.064 152.07 119.693 152.261 120.129 151.821C123.99 147.935 127.851 144.048 131.711 140.161C132.063 139.807 132.415 139.453 132.766 139.099C134.378 141.202 135.99 143.304 137.601 145.407C140.426 149.092 143.25 152.776 146.074 156.461C146.726 157.311 147.377 158.161 148.029 159.011C148.25 159.3 148.686 159.374 148.981 159.148C152.969 156.092 156.956 153.035 160.943 149.979C161.964 149.196 162.985 148.414 164.005 147.632C164.294 147.41 164.369 146.974 164.143 146.679ZM151.228 155.711C150.385 156.356 149.543 157.003 148.7 157.648C147.069 155.521 145.438 153.393 143.807 151.266C140.983 147.581 138.159 143.896 135.334 140.212C134.683 139.362 134.031 138.512 133.38 137.662C133.091 137.284 132.609 137.337 132.302 137.646C128.442 141.533 124.581 145.42 120.72 149.306C120.47 149.558 120.219 149.811 119.969 150.063C119.529 148.243 119.089 146.423 118.649 144.603C117.35 139.227 116.05 133.851 114.751 128.475C113.185 121.997 111.619 115.518 110.053 109.04C108.699 103.437 107.345 97.8345 105.991 92.2321C105.433 89.9253 104.879 87.6176 104.319 85.3117C105.91 86.1809 107.502 87.0501 109.093 87.9193C113.947 90.5705 118.8 93.2218 123.654 95.8734C129.503 99.0686 135.352 102.264 141.201 105.459C146.259 108.222 151.318 110.985 156.376 113.749C158.055 114.666 159.734 115.583 161.413 116.5C161.844 116.735 162.283 117.017 162.731 117.276C158.318 119.798 153.904 122.32 149.491 124.842C148.811 125.231 148.131 125.62 147.451 126.008C147.134 126.19 147.112 126.698 147.314 126.961C149.084 129.271 150.855 131.58 152.625 133.89C155.449 137.575 158.274 141.259 161.098 144.944C161.613 145.616 162.128 146.288 162.643 146.96C158.838 149.877 155.033 152.794 151.228 155.711Z" fill="white"/>
<path d="M140.062 138.468C140.085 138.386 140.114 138.306 140.15 138.229C140.494 137.507 141.292 137.48 141.761 136.948C141.97 136.71 141.993 135.764 142.486 135.946C142.667 136.014 143.297 136.193 143.918 136.411C144.465 136.396 145.014 136.405 145.557 136.337C146.932 136.167 149.635 134.187 150.692 135.769C150.896 136.075 151.105 136.389 151.19 136.747C151.259 137.04 151.242 137.346 151.211 137.645C151.187 137.878 151.204 138.254 151.027 138.399C150.841 138.55 150.237 138.553 149.995 138.601C149.305 138.737 148.614 138.872 147.924 139.008C147.246 139.14 146.461 139.36 146.217 140.006C146.164 140.148 146.141 140.301 146.069 140.434C145.988 140.583 145.851 140.694 145.714 140.795C145.213 141.168 144.67 141.51 144.095 141.758C143.066 142.199 141.592 141.247 140.729 140.773C140.514 140.655 140.295 140.526 140.153 140.326C139.921 140.002 139.939 139.568 139.966 139.17C139.982 138.934 139.999 138.694 140.062 138.468Z" fill="#EFBBBB"/>
<path d="M165.28 133.481C164.77 134.203 164.251 134.935 163.568 135.497C163.023 135.945 162.39 136.272 161.755 136.578C157.817 138.48 153.58 139.764 149.248 140.367C148.36 138.511 147.844 136.478 147.74 134.423C151.092 133.129 154.34 131.566 157.444 129.756C158.079 129.386 158.715 129 159.229 128.474C159.968 127.716 160.405 126.721 160.826 125.75C162.457 121.982 164.09 118.213 165.721 114.445C166.706 112.172 167.743 109.824 169.588 108.169C174.702 103.582 181.209 109.339 178.354 115.077C175.149 121.52 169.442 127.585 165.28 133.481Z" fill="#8CABEF"/>
<path d="M179.355 54.7147C194.464 54.7147 206.712 42.4664 206.712 27.3573C206.712 12.2483 194.464 0 179.355 0C164.246 0 151.997 12.2483 151.997 27.3573C151.997 42.4664 164.246 54.7147 179.355 54.7147Z" fill="#5D66D3"/>
<path d="M198.523 23.8321C196.495 20.3497 192.32 18.6993 188.515 19.7472C188.508 19.7491 188.501 19.7494 188.494 19.7506C187.324 20.1868 186.347 21.0337 185.926 22.37C185.834 22.6637 185.382 22.5379 185.475 22.2424C185.925 20.81 186.937 19.8783 188.163 19.3752C186.823 15.0463 182.743 11.9802 178.261 12.3213C173.849 12.6568 170.265 16.0933 169.412 20.5015C169.783 20.5917 170.147 20.7168 170.5 20.8816C171.902 21.5374 172.991 22.6677 173.767 24.0213C173.92 24.289 173.515 24.5309 173.362 24.2639C173.107 23.8185 172.811 23.3975 172.474 23.0131C171.226 21.5854 169.441 20.7351 167.56 20.8212C165.659 20.9082 163.611 21.95 162.331 23.3752C160.865 25.0086 160.074 27.2172 160.27 29.4425C160.462 31.6266 161.569 33.663 163.286 34.9758C164.878 36.1935 166.73 36.747 168.698 36.8239C169.989 36.8743 171.281 36.8932 172.572 36.9109C176.263 36.9623 179.954 36.9772 183.646 36.9871C185.267 36.9914 186.889 36.9939 188.511 36.9952C189.843 36.9961 191.245 37.1054 192.557 36.8458C196.849 35.9971 200.097 31.9603 199.669 27.4095C199.55 26.1479 199.156 24.9203 198.523 23.8321Z" fill="white"/>
<path d="M80.196 142.707C88.3329 134.57 88.3329 121.377 80.196 113.241C72.0592 105.104 58.8667 105.104 50.7299 113.241C42.593 121.377 42.593 134.57 50.7299 142.707C58.8667 150.844 72.0592 150.844 80.196 142.707Z" fill="#5D66D3"/>
<path d="M80.2938 120.796C79.4949 119.406 77.9876 118.561 76.3939 118.542C76.0373 118.538 75.6805 118.542 75.3237 118.542C73.4679 118.542 71.6118 118.542 69.756 118.542C68.3676 118.542 66.9789 118.537 65.5903 118.542C64.3413 118.547 63.1097 119.031 62.2526 119.955C61.419 120.854 61.0532 121.97 61.0306 123.172C60.2788 123.172 59.527 123.172 58.7752 123.172C57.3868 123.172 55.9982 123.167 54.6095 123.172C53.3605 123.177 52.1289 123.661 51.2718 124.585C50.411 125.513 50.0454 126.672 50.0454 127.92C50.0454 128.82 50.0454 129.72 50.0454 130.621C50.0454 131.434 49.9863 132.283 50.1799 133.08C50.5572 134.635 51.8225 135.911 53.363 136.328C53.9574 136.489 54.554 136.485 55.1609 136.485C58.4865 136.485 61.8124 136.485 65.138 136.485C65.23 136.485 65.322 136.485 65.414 136.485C67.0452 136.463 68.6108 135.575 69.3771 134.115C69.6438 133.606 69.777 133.088 69.8449 132.557L69.847 132.558L69.8483 132.528C69.8755 132.306 69.8926 132.082 69.9013 131.855C70.0521 131.855 70.2026 131.855 70.3535 131.855C72.2753 131.855 74.197 131.855 76.1188 131.855C76.2108 131.855 76.3028 131.855 76.3948 131.855C78.026 131.833 79.5916 130.945 80.3579 129.485C80.8415 128.564 80.8938 127.613 80.8938 126.604C80.8938 125.642 80.8938 124.678 80.8938 123.716C80.8932 122.691 80.8204 121.713 80.2938 120.796ZM65.7644 125.218C65.7724 125.22 65.7805 125.221 65.7904 125.223C65.909 125.249 66.0264 125.274 66.1426 125.309C66.1999 125.326 66.256 125.347 66.3133 125.364C66.3328 125.37 66.3483 125.375 66.361 125.378C66.3715 125.384 66.3845 125.391 66.4 125.399C66.5313 125.467 66.6611 125.533 66.786 125.614C66.8011 125.624 66.908 125.701 66.9284 125.712C66.9526 125.733 66.9774 125.752 67.0009 125.773C67.1437 125.899 67.2754 126.036 67.3959 126.184C67.3977 126.186 67.399 126.187 67.4008 126.189C67.4067 126.199 67.4135 126.211 67.4219 126.224C67.4671 126.3 67.5182 126.372 67.5622 126.449C67.5951 126.506 67.7379 126.829 67.7004 126.719C67.7478 126.849 67.7902 126.981 67.823 127.116C67.8379 127.177 67.8503 127.238 67.8618 127.3C67.858 127.293 67.8782 127.447 67.88 127.483C67.9144 128.128 67.885 128.78 67.885 129.426C67.885 129.559 67.885 129.693 67.885 129.827C67.8159 129.827 67.7465 129.827 67.6775 129.827C67.6394 129.827 67.6013 129.827 67.5632 129.827C66.9758 129.827 66.3885 129.827 65.8009 129.827C65.7092 129.827 65.6172 129.828 65.5255 129.827C65.4184 129.825 65.3118 129.82 65.2049 129.811C65.257 129.811 64.9426 129.759 64.8822 129.742C64.7951 129.719 64.7112 129.688 64.6247 129.662C64.6111 129.658 64.6003 129.655 64.5897 129.652C64.586 129.65 64.5829 129.648 64.5783 129.646C64.403 129.564 64.2444 129.463 64.0786 129.364C64.0656 129.356 64.0368 129.335 64.0179 129.322C63.968 129.281 63.9191 129.238 63.8717 129.194C63.7639 129.094 63.667 128.986 63.5697 128.876C63.5585 128.864 63.5496 128.854 63.5415 128.845C63.535 128.834 63.5273 128.82 63.5161 128.801C63.4861 128.751 63.451 128.703 63.4207 128.653C63.3748 128.578 63.3315 128.501 63.2915 128.422C63.2729 128.385 63.2559 128.348 63.2386 128.311C63.237 128.306 63.2355 128.303 63.2336 128.297C63.1788 128.141 63.1295 127.984 63.0948 127.822C63.0883 127.791 63.0831 127.76 63.0775 127.729C63.0796 127.723 63.0595 127.565 63.0583 127.543C63.053 127.445 63.0536 127.347 63.0533 127.249C63.0518 126.565 63.053 125.882 63.0533 125.199C63.6456 125.199 64.2379 125.199 64.8301 125.199C64.9986 125.199 65.1675 125.199 65.336 125.199C65.3611 125.199 65.3861 125.199 65.4112 125.199C65.5293 125.201 65.6467 125.207 65.7644 125.218ZM67.8738 132.267C67.8735 132.279 67.8732 132.289 67.8729 132.299C67.8717 132.305 67.8704 132.31 67.8692 132.318C67.833 132.513 67.7766 132.696 67.7202 132.886C67.7162 132.899 67.705 132.927 67.6967 132.949C67.6679 133.01 67.6378 133.071 67.6053 133.131C67.5483 133.236 67.4842 133.336 67.4176 133.435C67.4132 133.437 67.3259 133.557 67.311 133.574C67.2723 133.618 67.2326 133.661 67.1918 133.702C67.1304 133.765 67.0669 133.826 67.0012 133.884C66.9746 133.907 66.9467 133.93 66.9192 133.952C66.913 133.957 66.9058 133.962 66.8956 133.969C66.7606 134.059 66.6246 134.145 66.4799 134.219C66.4523 134.233 66.4238 134.245 66.3957 134.259C66.3789 134.263 66.2467 134.316 66.2284 134.322C66.084 134.369 65.9381 134.402 65.7904 134.434C65.7703 134.438 65.7541 134.442 65.7411 134.445C65.7284 134.445 65.7129 134.446 65.6947 134.446C65.6008 134.449 65.5076 134.456 65.4134 134.457C62.4697 134.457 59.526 134.457 56.5824 134.457C55.9951 134.457 55.4074 134.457 54.8201 134.457C54.7284 134.457 54.6364 134.458 54.5447 134.457C54.4376 134.456 54.331 134.451 54.2241 134.442C54.2762 134.441 53.9618 134.389 53.9014 134.373C53.8143 134.35 53.7304 134.318 53.644 134.293C53.6303 134.289 53.6195 134.285 53.609 134.282C53.6052 134.281 53.6021 134.279 53.5972 134.277C53.4219 134.195 53.2633 134.093 53.0975 133.995C53.0845 133.987 53.0557 133.966 53.0368 133.952C52.9869 133.911 52.938 133.869 52.8906 133.825C52.7828 133.725 52.6859 133.617 52.5886 133.507C52.5774 133.495 52.5685 133.484 52.5604 133.476C52.5539 133.464 52.5462 133.451 52.535 133.432C52.505 133.382 52.47 133.334 52.4396 133.284C52.3938 133.208 52.3507 133.131 52.3104 133.052C52.2918 133.016 52.2748 132.978 52.2575 132.941C52.2559 132.937 52.2544 132.933 52.2525 132.928C52.1974 132.771 52.1484 132.615 52.1137 132.452C52.1072 132.422 52.102 132.39 52.0964 132.359C52.0986 132.354 52.0784 132.196 52.0772 132.174C52.0719 132.076 52.0725 131.978 52.0722 131.879C52.0707 131.084 52.0722 130.288 52.0722 129.493C52.0722 128.855 52.0549 128.215 52.0735 127.577C52.0753 127.514 52.0812 127.452 52.0834 127.39C52.084 127.37 52.0843 127.354 52.0843 127.341C52.0877 127.328 52.0914 127.313 52.0958 127.294C52.1301 127.147 52.1608 127 52.2079 126.856C52.2144 126.837 52.2757 126.683 52.2702 126.688C52.2897 126.647 52.3098 126.606 52.3312 126.566C52.3656 126.5 52.4015 126.436 52.4396 126.373C52.4551 126.348 52.5762 126.176 52.5793 126.163C52.6571 126.069 52.7398 125.978 52.8271 125.893C52.8795 125.842 52.9349 125.794 52.9891 125.745C53.0037 125.732 53.0353 125.708 53.0604 125.69C53.1703 125.615 53.2815 125.543 53.3986 125.479C53.4544 125.449 53.5114 125.421 53.5687 125.394C53.5538 125.404 53.7378 125.332 53.7713 125.322C53.9138 125.278 54.059 125.243 54.2059 125.217C54.2266 125.214 54.2499 125.211 54.2622 125.211C54.3561 125.208 54.4493 125.201 54.5435 125.2C54.5652 125.199 54.5872 125.2 54.6089 125.2C54.7709 125.199 54.9329 125.2 55.0949 125.2C55.7782 125.2 56.4613 125.2 57.1446 125.2C58.4382 125.2 59.732 125.2 61.0256 125.2C61.0256 125.214 61.0256 125.228 61.0256 125.243L61.0172 125.243V125.374L61.0256 125.376C61.0256 125.581 61.0256 125.786 61.0256 125.991C61.0256 126.804 60.9664 127.653 61.1601 128.45C61.537 130.005 62.8027 131.282 64.3432 131.698C64.9379 131.859 65.5345 131.855 66.141 131.855C66.6531 131.855 67.1651 131.855 67.6771 131.855C67.7465 131.855 67.8156 131.855 67.8847 131.855V131.855C67.8847 131.899 67.8853 131.942 67.8847 131.986C67.8838 132.08 67.8769 132.173 67.8738 132.267ZM78.8658 124.796C78.8658 125.606 78.867 126.416 78.8658 127.225C78.8658 127.269 78.8664 127.312 78.8658 127.356C78.8646 127.45 78.8577 127.543 78.8546 127.637C78.8543 127.649 78.854 127.659 78.8537 127.669C78.8525 127.674 78.8515 127.68 78.85 127.688C78.8137 127.883 78.7574 128.066 78.701 128.256C78.697 128.27 78.6858 128.297 78.6775 128.318C78.6486 128.38 78.6186 128.441 78.5861 128.501C78.5291 128.606 78.465 128.706 78.3984 128.805C78.394 128.808 78.3067 128.927 78.2918 128.944C78.2531 128.988 78.2131 129.031 78.1725 129.072C78.1112 129.135 78.0477 129.196 77.982 129.254C77.9554 129.277 77.9275 129.3 77.8999 129.322C77.8938 129.327 77.8866 129.332 77.8764 129.339C77.7414 129.429 77.6054 129.515 77.4607 129.589C77.4331 129.603 77.4046 129.615 77.3764 129.629C77.3597 129.633 77.2278 129.685 77.2092 129.691C77.0648 129.738 76.9189 129.771 76.7712 129.804C76.7507 129.808 76.7349 129.812 76.7219 129.815C76.7092 129.815 76.694 129.815 76.6755 129.816C76.5816 129.819 76.4884 129.826 76.3942 129.827C74.3804 129.827 72.3666 129.827 70.3529 129.827C70.2061 129.827 70.0592 129.827 69.9124 129.827C69.9124 129.333 69.9124 128.839 69.9124 128.345C69.9124 127.321 69.8399 126.343 69.313 125.426C68.5141 124.035 67.0068 123.19 65.4131 123.172C65.0566 123.168 64.6997 123.172 64.3429 123.172C63.9129 123.172 63.483 123.172 63.053 123.172C63.0542 123.097 63.0527 123.022 63.0549 122.947C63.0567 122.884 63.0626 122.822 63.0648 122.76C63.0654 122.74 63.0657 122.724 63.0657 122.711C63.0691 122.698 63.0728 122.683 63.0772 122.664C63.1116 122.517 63.1422 122.37 63.1893 122.226C63.1958 122.206 63.2571 122.052 63.2516 122.058C63.2711 122.017 63.2915 121.976 63.3126 121.936C63.347 121.87 63.3829 121.806 63.421 121.743C63.4365 121.717 63.5576 121.545 63.5607 121.533C63.6385 121.439 63.7212 121.348 63.8085 121.263C63.8612 121.212 63.9163 121.164 63.9705 121.115C63.9851 121.101 64.0167 121.078 64.0418 121.06C64.1517 120.985 64.2629 120.912 64.38 120.849C64.4358 120.819 64.4928 120.79 64.5504 120.763C64.5355 120.774 64.7195 120.702 64.7527 120.692C64.8952 120.647 65.0404 120.613 65.1873 120.587C65.208 120.584 65.2313 120.581 65.2437 120.581C65.3375 120.578 65.4307 120.57 65.5249 120.569C65.5466 120.569 65.5686 120.569 65.5903 120.569C65.7523 120.569 65.9143 120.569 66.0763 120.569C66.7596 120.569 67.4427 120.569 68.126 120.569C69.9957 120.569 71.8651 120.569 73.7349 120.569C74.4269 120.569 75.1189 120.569 75.8112 120.569C75.9797 120.569 76.1486 120.569 76.3171 120.569C76.3422 120.569 76.3672 120.569 76.3923 120.569C76.5107 120.571 76.6281 120.577 76.7458 120.587C76.7538 120.589 76.7619 120.591 76.7718 120.593C76.8904 120.618 77.0078 120.643 77.124 120.678C77.1813 120.696 77.2374 120.717 77.2947 120.734C77.3142 120.74 77.3297 120.744 77.3424 120.748C77.3529 120.753 77.3659 120.76 77.3814 120.769C77.5127 120.837 77.6425 120.903 77.7674 120.984C77.7825 120.994 77.8894 121.071 77.9099 121.082C77.934 121.103 77.9588 121.122 77.9823 121.143C78.1251 121.269 78.2568 121.406 78.3773 121.554C78.3792 121.556 78.3804 121.557 78.3822 121.559C78.3881 121.569 78.3949 121.581 78.4033 121.594C78.4485 121.67 78.4996 121.742 78.5436 121.819C78.5765 121.876 78.7196 122.199 78.6818 122.089C78.7292 122.219 78.7716 122.351 78.8045 122.486C78.8193 122.547 78.8317 122.608 78.8432 122.67C78.8395 122.663 78.8596 122.817 78.8615 122.853C78.8952 123.498 78.8658 124.151 78.8658 124.796Z" fill="white"/>
<path d="M205.622 84.4344C212.75 84.4344 218.528 78.6563 218.528 71.5287C218.528 64.4011 212.75 58.623 205.622 58.623C198.495 58.623 192.717 64.4011 192.717 71.5287C192.717 78.6563 198.495 84.4344 205.622 84.4344Z" fill="#D67086"/>
</svg>
