<svg width="21" height="20" viewBox="0 0 21 20" fill="none" xmlns="http://www.w3.org/2000/svg">
<path d="M8.4165 11.4585C8.4165 12.2669 9.04152 12.9169 9.80818 12.9169H11.3748C12.0415 12.9169 12.5832 12.3502 12.5832 11.6419C12.5832 10.8835 12.2498 10.6085 11.7582 10.4335L9.24984 9.55853C8.75817 9.38353 8.42485 9.11686 8.42485 8.35019C8.42485 7.65019 8.9665 7.0752 9.63316 7.0752H11.1998C11.9665 7.0752 12.5915 7.7252 12.5915 8.53353" stroke="#0246FF" stroke-width="1.25" stroke-linecap="round" stroke-linejoin="round"/>
<path d="M10.5 6.25V13.75" stroke="#0246FF" stroke-width="1.25" stroke-linecap="round" stroke-linejoin="round"/>
<path d="M18.8332 9.99984C18.8332 14.5998 15.0998 18.3332 10.4998 18.3332C5.89984 18.3332 2.1665 14.5998 2.1665 9.99984C2.1665 5.39984 5.89984 1.6665 10.4998 1.6665" stroke="#0246FF" stroke-width="1.25" stroke-linecap="round" stroke-linejoin="round"/>
<path d="M18.8333 4.99984V1.6665H15.5" stroke="#292D32" stroke-width="1.25" stroke-linecap="round" stroke-linejoin="round"/>
<path d="M14.6665 5.83317L18.8332 1.6665" stroke="#292D32" stroke-width="1.25" stroke-linecap="round" stroke-linejoin="round"/>
</svg>
