<svg width="267" height="239" viewBox="0 0 267 239" fill="none" xmlns="http://www.w3.org/2000/svg">
<rect x="0.5" y="0.5" width="266" height="238" rx="14.5" fill="#336AFF" fill-opacity="0.1"/>
<rect x="0.5" y="0.5" width="266" height="238" rx="14.5" stroke="url(#paint0_linear_491_2433)"/>
<path d="M120.582 41.9995H55.9988V106.583H120.582V41.9995ZM68.9155 54.9162H107.666V93.6664H68.9155V54.9162ZM94.749 158.25H81.8322V171.167H94.749V158.25Z" fill="black"/>
<path d="M120.582 132.416H55.9988V196.999H120.582V132.416ZM68.9155 145.332H107.666V184.082H68.9155V145.332ZM172.249 67.832H185.166V80.7487H172.249V67.832Z" fill="black"/>
<path d="M146.409 41.9995H210.992V106.583H146.409V41.9995ZM159.326 54.9162V93.6664H198.076V54.9162H159.326ZM133.492 119.5V145.333H146.409V158.25H133.492V171.167H159.326V145.333H172.242V171.167H185.159V158.25H210.992V145.333H172.242V119.5H133.492ZM159.326 145.333H146.409V132.417H159.326V145.333ZM210.992 171.167H198.076V184.083H172.242V197H210.992V171.167ZM159.326 197V184.083H133.492V197H159.326Z" fill="black"/>
<path d="M185.168 132.417H211.001V119.5H185.168V132.417Z" fill="black"/>
<circle cx="88.1531" cy="74.1466" r="7.46299" fill="black"/>
<defs>
<linearGradient id="paint0_linear_491_2433" x1="133.5" y1="0" x2="133.5" y2="239" gradientUnits="userSpaceOnUse">
<stop stop-color="#3C70FF"/>
<stop offset="1" stop-color="#8FADFF"/>
</linearGradient>
</defs>
</svg>
